<?xml version='1.0' encoding='UTF-8'?>
<!-- Created with Inkscape (http://www.inkscape.org/) --><svg xmlns:inkscape="http://www.inkscape.org/namespaces/inkscape" xmlns:sodipodi="http://sodipodi.sourceforge.net/DTD/sodipodi-0.dtd" xmlns:xlink="http://www.w3.org/1999/xlink" xmlns="http://www.w3.org/2000/svg" xmlns:svg="http://www.w3.org/2000/svg" version="1.1" id="svg1" width="814" height="136" viewBox="0 0 814 136" inkscape:version="1.4.3 (0d15f75, 2025-12-25)">
  <defs id="defs1"/>
  <g inkscape:groupmode="layer" inkscape:label="Image" id="g1">
    <path style="fill:none;stroke:#0000ff;stroke-width:7;stroke-dasharray:none;stroke-opacity:1" d="m 41.982157,102.09297 c 0,0 39.119738,63.92738 123.084053,-16.220375 83.96431,-80.1477554 130.71717,21.945215 130.71717,21.945215" id="path1"/>
    <path style="fill:none;stroke:#ff7900;stroke-width:7;stroke-dasharray:none;stroke-opacity:1" d="m 144.07513,107.81781 c 0,0 -28.6242,-3.81656 -19.0828,-23.853495" id="path2"/>
    <path style="fill:none;stroke:#ff7900;stroke-width:7;stroke-dasharray:none;stroke-opacity:1" d="m 269.06746,75.377055 c -3.81656,1.90828 -95.41399,5.72484 -60.11081,-50.569417 0,0 18.12866,-20.9910782 29.57834,-13.357959" id="path3"/>
    <path style="fill:none;stroke:#00ffff;stroke-width:7;stroke-dasharray:none;stroke-opacity:1" d="m 201.32353,47.706997 c -3.81656,-1.90828 -49.61528,-38.1655976 -59.15668,5.72484" id="path4"/>
    <path style="fill:none;stroke:#00ffff;stroke-width:7;stroke-dasharray:none;stroke-opacity:1" d="m 227.08531,76.331195 c 0,0 -31.48662,35.303175 12.40382,44.844575" id="path5"/>
    <path style="fill:none;stroke:#ff7bff;stroke-width:7;stroke-dasharray:none;stroke-opacity:1" d="m 149.79997,37.211458 c 0,0 -37.21146,-13.357959 -3.81656,-27.6700586" id="path6"/>
    <path style="fill:none;stroke:#ff7bff;stroke-width:7;stroke-dasharray:none;stroke-opacity:1" d="m 215.63563,107.81781 c 0,0 -24.80764,21.94522 -32.44076,0.95414" id="path7"/>
    <path style="fill:none;stroke:#ff7bff;stroke-width:7;stroke-dasharray:none;stroke-opacity:1" d="m 209.91079,24.807638 c 0,0 -20.03694,-27.6700578 -30.53248,-10.495539" id="path8"/>
    <ellipse style="fill:none;stroke:#ff0000;stroke-width:7;stroke-dasharray:none;stroke-opacity:1" id="path9" cx="56.771328" cy="66.312729" rx="48.184067" ry="47.229927"/>
    <ellipse style="fill:none;stroke:#ff0000;stroke-width:7;stroke-dasharray:none;stroke-opacity:1" id="path10" cx="284.33371" cy="61.542027" rx="47.706997" ry="38.642666"/>
    <path style="fill:none;stroke:#000000;stroke-width:7;stroke-dasharray:7,7;stroke-opacity:1;stroke-dashoffset:0" d="M -0.95413994,0 C -0.95413994,5.7248396 0,133.57959 0,133.57959" id="path11"/>
    <path style="fill:none;stroke:#000000;stroke-width:7;stroke-dasharray:7, 7;stroke-dashoffset:0;stroke-opacity:1" d="m 297.70376,1.7491089 c 0,5.72484 0.95414,133.5795911 0.95414,133.5795911" id="path11-8"/>
  </g>
</svg>