<?xml version='1.0' encoding='UTF-8'?>
<!-- Created with Inkscape (http://www.inkscape.org/) --><svg xmlns:inkscape="http://www.inkscape.org/namespaces/inkscape" xmlns:sodipodi="http://sodipodi.sourceforge.net/DTD/sodipodi-0.dtd" xmlns:xlink="http://www.w3.org/1999/xlink" xmlns="http://www.w3.org/2000/svg" xmlns:svg="http://www.w3.org/2000/svg" version="1.1" id="svg1" width="1094" height="108" viewBox="0 0 1094 108" inkscape:version="1.4.3 (0d15f75, 2025-12-25)">
  <defs id="defs1"/>
  <g inkscape:groupmode="layer" inkscape:label="Image" id="g1">
    <path style="fill:none;stroke:#0000ff;stroke-width:6;stroke-opacity:1" d="m 437.05595,47.151264 c 0,0 48.96477,111.530876 144.17405,8.160796 95.20929,-103.370079 153.24161,-5.440531 153.24161,-5.440531" id="path1"/>
    <path style="fill:none;stroke:#ff7800;stroke-width:6;stroke-opacity:1" d="m 444.30999,58.93908 c 5.44053,0 76.16742,58.03232 95.20928,-6.347286 19.04186,-64.37961 -75.26067,-57.1255694 -75.26067,-22.668876 0,34.456692 36.2702,52.591794 55.31206,17.228346" id="path2"/>
    <path style="fill:none;stroke:#ff7800;stroke-width:6;stroke-opacity:1" d="m 517.75715,48.058019 c 0,0 2.72026,-37.176958 -31.73643,-21.762122" id="path3"/>
    <path style="fill:none;stroke:#ff7800;stroke-width:6;stroke-opacity:1" d="m 614.77994,31.736428 c 0,0 76.16743,-36.2702034 77.98094,26.295897 1.81351,62.566105 -87.95524,45.337755 -85.23498,22.668877 2.72027,-22.668877 2.72027,-37.176958 27.20265,-39.897224 24.48239,-2.720265 37.17696,-2.720265 35.36345,12.694571 -1.81351,15.414837 -5.44053,37.176959 -33.54994,28.109408 -28.1094,-9.067551 4.53378,-30.829673 4.53378,-30.829673" id="path4"/>
    <path style="fill:none;stroke:#000000;stroke-width:6;stroke-opacity:1" d="M 433.42893,0.90675508 436.14919,106.09034" id="path5"/>
    <path style="fill:none;stroke:#000000;stroke-width:6;stroke-opacity:1" d="M 732.07691,0.66935442 734.79717,105.85294" id="path5-2"/>
  </g>
</svg>