<?xml version='1.0' encoding='UTF-8'?>
<!-- Created with Inkscape (http://www.inkscape.org/) --><svg xmlns:inkscape="http://www.inkscape.org/namespaces/inkscape" xmlns:sodipodi="http://sodipodi.sourceforge.net/DTD/sodipodi-0.dtd" xmlns:xlink="http://www.w3.org/1999/xlink" xmlns="http://www.w3.org/2000/svg" xmlns:svg="http://www.w3.org/2000/svg" version="1.1" id="svg1" width="713" height="122" viewBox="0 0 713 122" inkscape:version="1.4.3 (0d15f75, 2025-12-25)">
  <defs id="defs1"/>
  <g inkscape:groupmode="layer" inkscape:label="Image" id="g1">
    <path style="fill:none;stroke:#0000ff;stroke-width:6;stroke-opacity:1" d="M -4.1787579,15.043528 C 1.2536274,21.729541 76.053393,124.52698 195.98374,119.93035 315.91409,115.33372 338.47939,98.20081 444.20196,40.533951 549.92453,-17.132907 674.45152,5.850261 711.64246,30.087057" id="path1"/>
    <ellipse style="fill:none;stroke:#ff0000;stroke-width:6;stroke-opacity:1" id="path2" cx="222.93674" cy="55.368542" rx="96.738243" ry="55.368542"/>
    <ellipse style="fill:none;stroke:#ff0000;stroke-width:6.44622;stroke-opacity:1" id="path3" cx="587.95123" cy="66.651184" rx="108.4246" ry="53.891804"/>
    <path style="fill:none;stroke:#ff7800;stroke-width:6;stroke-opacity:1" d="m 55.159604,77.724896 c -1.671503,0 -35.519442,-16.715031 -49.7272188,1.253627" id="path4"/>
    <path style="fill:none;stroke:#ff7800;stroke-width:6;stroke-opacity:1" d="m 83.157281,87.753915 c 0,0 31.758559,8.357516 35.519439,-3.760882" id="path5"/>
    <path style="fill:none;stroke:#ff7800;stroke-width:6;stroke-opacity:1" d="m 365.64131,87.753915 c 0,0 57.24898,-34.265814 71.45676,-8.357516" id="path6"/>
    <path style="fill:none;stroke:#ff7800;stroke-width:6;stroke-opacity:1" d="m 387.78873,70.203132 c 0,0 35.51944,-12.536274 8.35751,-43.041206" id="path7"/>
  </g>
</svg>