<?xml version='1.0' encoding='UTF-8'?>
<!-- Created with Inkscape (http://www.inkscape.org/) --><svg xmlns:inkscape="http://www.inkscape.org/namespaces/inkscape" xmlns:sodipodi="http://sodipodi.sourceforge.net/DTD/sodipodi-0.dtd" xmlns:xlink="http://www.w3.org/1999/xlink" xmlns="http://www.w3.org/2000/svg" xmlns:svg="http://www.w3.org/2000/svg" version="1.1" id="svg1" width="660" height="214" viewBox="0 0 660 214" inkscape:version="1.4.3 (0d15f75, 2025-12-25)">
  <defs id="defs1"/>
  <g inkscape:groupmode="layer" inkscape:label="Image" id="g1">
    <path style="fill:none;stroke:#0000ff;stroke-width:6;stroke-opacity:1" d="m 1.6411106,113.23663 c 0,2.18815 30.0870284,88.61998 99.5607094,82.05554 69.47369,-6.56445 86.97887,-48.13925 95.18442,-79.32035 8.20555,-31.181103 28.99296,-85.337755 65.64443,-96.825529 36.65147,-11.4877746 48.68628,-16.4111066 99.56071,17.50518 0,0 37.74554,26.804807 33.36925,77.132199" id="path1"/>
    <path style="fill:none;stroke:#007800;stroke-width:6;stroke-opacity:1" d="m 204.59179,86.978864 c 0,0 -7.11148,-94.6373804 -84.24368,-70.567758 -1.09407,1.641111 -24.069619,3.282222 -10.94073,34.463324" id="path3"/>
    <path style="fill:none;stroke:#007800;stroke-width:6;stroke-opacity:1" d="m 395.50767,112.6896 c 0,0 -2.73519,90.80812 -79.32035,66.19146 0,0 -13.12889,-2.18815 -7.65852,-25.71073" id="path4"/>
    <ellipse style="fill:none;stroke:#ff0000;stroke-width:5.85447;stroke-opacity:1" id="path5" cx="102.02238" cy="112.6896" rx="71.461082" ry="62.434967"/>
    <ellipse style="fill:none;stroke:#ff0000;stroke-width:6.56324;stroke-opacity:1" id="path6" cx="297.8616" cy="95.457939" rx="68.918541" ry="59.618919"/>
    <path style="fill:none;stroke:#ff7800;stroke-width:6;stroke-opacity:1" d="m 202.40365,66.7385 c 0,0 9.29962,-34.463324 -8.75259,-53.609615" id="path7"/>
  </g>
</svg>