<?xml version='1.0' encoding='UTF-8'?>
<!-- Created with Inkscape (http://www.inkscape.org/) --><svg xmlns:inkscape="http://www.inkscape.org/namespaces/inkscape" xmlns:sodipodi="http://sodipodi.sourceforge.net/DTD/sodipodi-0.dtd" xmlns:xlink="http://www.w3.org/1999/xlink" xmlns="http://www.w3.org/2000/svg" xmlns:svg="http://www.w3.org/2000/svg" version="1.1" id="svg1" width="535" height="118" viewBox="0 0 535 118" inkscape:version="1.4.3 (0d15f75, 2025-12-25)">
  <defs id="defs1"/>
  <g inkscape:groupmode="layer" inkscape:label="Image" id="g1">
    <path style="fill:none;stroke:#0000ff;stroke-width:6;stroke-opacity:1" d="m 490.43514,64.740986 c 0,0 -44.78657,-75.826771 -102.87609,-61.1935347 C 329.46954,18.180688 309.95856,105.98011 272.26689,109.97099 c -37.69167,3.99088 -60.75011,16.40696 -99.32864,-34.58765 l -9.31206,-13.746374" id="path1"/>
    <path style="fill:none;stroke:#007800;stroke-width:6;stroke-opacity:1" d="m 372.03896,11.529217 c 0,0 46.11686,-6.20804 50.99461,17.293825 4.87774,23.501865 -11.08579,31.48363 -11.08579,31.48363" id="path2"/>
    <ellipse style="fill:none;stroke:#ff0000;stroke-width:6;stroke-opacity:1" id="path3" cx="378.91214" cy="76.935349" rx="34.809364" ry="33.035641"/>
    <path style="fill:none;stroke:#007800;stroke-width:6;stroke-opacity:1" d="m 175.59884,77.600497 c 0,0 42.12598,14.633237 55.42893,-11.529216" id="path4"/>
    <ellipse style="fill:none;stroke:#ff0000;stroke-width:6;stroke-opacity:1" id="path5" cx="238.78781" cy="40.573975" rx="32.148777" ry="27.714464"/>
    <path style="fill:none;stroke:#ff7800;stroke-width:6;stroke-opacity:1" d="m 291.33444,101.54579 c 0,0 21.72814,-4.877742 24.83216,3.99089" id="path6"/>
    <path style="fill:none;stroke:#ff7800;stroke-width:6;stroke-opacity:1" d="m 452.74347,20.397845 c 3.10402,0 29.70991,7.094903 33.25736,-7.538334" id="path7"/>
    <path style="fill:none;stroke:#ff7800;stroke-width:6;stroke-opacity:1" d="m 193.77953,95.781185 c 0,0 24.38873,11.085785 34.14422,-0.443431" id="path8"/>
    <path style="fill:none;stroke:#ff7800;stroke-width:6;stroke-opacity:1" d="m 255.85993,110.41442 c 7.0949,-0.88686 41.68255,-23.058432 36.8048,-46.560297" id="path9"/>
    <path style="fill:none;stroke:#ff7800;stroke-width:6;stroke-opacity:1" d="m 271.38002,35.031082 c 0,0 13.30295,-5.764609 25.71903,4.877745 12.41608,10.642354 20.39784,-19.510982 35.47451,-26.162453" id="path10"/>
    <path style="fill:none;stroke:#ff7800;stroke-width:6;stroke-opacity:1" d="m 209.29963,30.596767 c 0,0 -9.31206,-11.085785 -20.84128,-2.217157 -11.52922,8.868629 -25.27559,3.10402 -24.83216,-4.434314" id="path11"/>
    <path style="fill:none;stroke:#00ffff;stroke-width:6;stroke-opacity:1" d="m 275.81434,95.781185 c 0,0 6.20804,-3.990883 -4.87775,-18.624119" id="path12"/>
    <path style="fill:none;stroke:#00ffff;stroke-width:6;stroke-opacity:1" d="m 313.06258,32.813925 c 0,0 3.10402,-7.094903 -4.43432,-21.72814" id="path13"/>
  </g>
</svg>