<?xml version='1.0' encoding='UTF-8'?>
<!-- Created with Inkscape (http://www.inkscape.org/) --><svg xmlns:inkscape="http://www.inkscape.org/namespaces/inkscape" xmlns:sodipodi="http://sodipodi.sourceforge.net/DTD/sodipodi-0.dtd" xmlns:xlink="http://www.w3.org/1999/xlink" xmlns="http://www.w3.org/2000/svg" xmlns:svg="http://www.w3.org/2000/svg" version="1.1" id="svg1" width="476" height="61" viewBox="0 0 476 61" inkscape:version="1.4.3 (0d15f75, 2025-12-25)">
  <defs id="defs1"/>
  <g inkscape:groupmode="layer" inkscape:label="Image" id="g1">
    <ellipse style="fill:none;stroke:#ff0000;stroke-width:6;stroke-opacity:1" id="path1" cx="354.57669" cy="28.455406" rx="27.060534" ry="21.760017"/>
    <ellipse style="fill:none;stroke:#ff0000;stroke-width:6;stroke-opacity:1" id="path2" cx="235.73352" cy="26.781559" rx="28.734381" ry="21.760017"/>
    <path style="fill:none;stroke:#0000ff;stroke-width:6;stroke-opacity:1" d="m 403.39724,37.940543 c 0,0 -0.55795,-39.0564413 -46.30978,-39.0564413 -45.75183,0 -60.25851,23.4338643 -78.67083,37.3825933 -18.41232,13.948729 -45.19388,36.824644 -76.99699,7.253339 0,0 -3.34769,-4.463593 -5.02154,-11.158983" id="path3"/>
    <path style="fill:none;stroke:#007800;stroke-width:6;stroke-opacity:1" d="m 276.18483,37.382593 c 0,0 16.73848,-18.412322 7.25334,-27.339508 -9.48514,-8.9271867 -11.15898,-1.6738477 -22.31797,2.789746" id="path4"/>
    <path style="fill:none;stroke:#007800;stroke-width:6;stroke-opacity:1" d="m 398.3757,28.455407 c 0,0 -6.69539,36.266695 -35.70875,22.317966" id="path5"/>
    <path style="fill:none;stroke:#ff7800;stroke-width:6;stroke-opacity:1" d="m 264.4679,51.331322 c 0,0 20.64412,10.601034 35.1508,-10.043085" id="path6"/>
    <path style="fill:none;stroke:#ff7800;stroke-width:6;stroke-opacity:1" d="m 283.99612,9.4851356 c 0,0 6.13744,-11.1589831 18.97027,-3.3476949" id="path7"/>
    <path style="fill:none;stroke:#ff7800;stroke-width:6;stroke-opacity:1" d="m 386.65876,3.9056441 c 0,0 12.27489,-4.46359325 21.76002,6.1374409" id="path8"/>
  </g>
</svg>