<?xml version='1.0' encoding='UTF-8'?>
<!-- Created with Inkscape (http://www.inkscape.org/) --><svg xmlns:inkscape="http://www.inkscape.org/namespaces/inkscape" xmlns:sodipodi="http://sodipodi.sourceforge.net/DTD/sodipodi-0.dtd" xmlns:xlink="http://www.w3.org/1999/xlink" xmlns="http://www.w3.org/2000/svg" xmlns:svg="http://www.w3.org/2000/svg" version="1.1" id="svg1" width="590" height="78" viewBox="0 0 590 78" inkscape:version="1.4.3 (0d15f75, 2025-12-25)">
  <defs id="defs1"/>
  <g inkscape:groupmode="layer" inkscape:label="Image" id="g1">
    <path style="fill:none;stroke:#0000ff;stroke-width:6;stroke-opacity:1" d="m 48.412764,38.632408 c 0,0 63.083296,-80.198923 139.370076,-0.489018 76.28678,79.7099 173.60133,33.253212 205.38749,6.846249" id="path1"/>
    <path style="fill:none;stroke:#007800;stroke-width:6;stroke-opacity:1" d="m 189.73891,39.610443 c 0,0 10.26938,38.14339 -37.16535,27.874016" id="path2"/>
    <path style="fill:none;stroke:#007800;stroke-width:6;stroke-opacity:1" d="m 254.77828,76.28678 c 0,0 56.23705,2.445089 54.28098,-16.626606" id="path3"/>
    <ellipse style="fill:none;stroke:#ff0000;stroke-width:6;stroke-opacity:1" id="path4" cx="121.52093" cy="44.256111" rx="44.256111" ry="28.118525"/>
    <ellipse style="fill:none;stroke:#ff0000;stroke-width:6;stroke-opacity:1" id="path5" cx="294.63324" cy="30.074596" rx="84.844589" ry="28.118525"/>
    <path style="fill:none;stroke:#ff7800;stroke-width:6;stroke-opacity:1" d="m 175.06838,25.428927 c 0,0 21.02777,11.247409 22.49482,2.934107" id="path6"/>
    <path style="fill:none;stroke:#ff7800;stroke-width:6;stroke-opacity:1" d="m 232.77248,68.951513 c 0,0 25.91795,2.934107 23.96188,-6.84625" id="path7"/>
    <path style="fill:none;stroke:#ff7800;stroke-width:6;stroke-opacity:1" d="m 322.26274,77.753833 c 0,0 21.02777,-11.247409 17.11563,-17.115623" id="path8"/>
    <path style="fill:none;stroke:#ff7800;stroke-width:6;stroke-opacity:1" d="m 379.47783,30.808123 c 0,0 25.91794,-0.489018 20.53875,-22.4948201" id="path9"/>
    <path style="fill:none;stroke:#ff7800;stroke-width:6;stroke-opacity:1" d="m 78.242851,47.923746 c 0,0 -5.868214,18.09366 -23.472855,2.445089" id="path10"/>
  </g>
</svg>