<?xml version='1.0' encoding='UTF-8'?>
<!-- Created with Inkscape (http://www.inkscape.org/) --><svg xmlns:inkscape="http://www.inkscape.org/namespaces/inkscape" xmlns:sodipodi="http://sodipodi.sourceforge.net/DTD/sodipodi-0.dtd" xmlns:xlink="http://www.w3.org/1999/xlink" xmlns="http://www.w3.org/2000/svg" xmlns:svg="http://www.w3.org/2000/svg" version="1.1" id="svg1" width="266" height="52" viewBox="0 0 266 52" inkscape:version="1.4.3 (0d15f75, 2025-12-25)">
  <defs id="defs1"/>
  <g inkscape:groupmode="layer" inkscape:label="Image" id="g1">
    <path style="fill:none;stroke:#0000ff;stroke-width:6;stroke-opacity:1" d="m 196,29.76378 c 0,0 0.44094,-30.42519732 -33.29134,-27.779528 -33.73228,2.6456693 -29.98425,30.425197 -29.98425,30.425197 0,0 0.88189,13.228346 -12.34646,16.755905 0,0 -9.03937,2.64567 -16.09449,2.866142 0,0 -12.566925,1.76378 -18.519681,-3.307087 C 84.220472,47.84252 75.622047,47.401575 72.314961,28.88189 l -0.661418,-2.425197" id="path1"/>
    <path style="fill:none;stroke:#007800;stroke-width:6;stroke-opacity:1" d="m 72.535433,27.779528 c 0,0 -3.307087,-23.8110241 16.094488,-26.0157485 C 108.0315,-0.44094488 103.84252,18.96063 103.84252,18.96063" id="path2"/>
    <path style="fill:none;stroke:#007800;stroke-width:6;stroke-opacity:1" d="m 165.13386,41.448819 c -11.02362,24.692913 -29.76378,-0.88189 -29.76378,-0.88189 l -2.86614,-3.748031" id="path3"/>
    <ellipse style="fill:none;stroke:#ff0000;stroke-width:6;stroke-opacity:1" id="path4" cx="103.51181" cy="32.960629" rx="19.732283" ry="13.559055"/>
    <ellipse style="fill:none;stroke:#ff0000;stroke-width:6;stroke-opacity:1" id="path4-8" cx="166.05511" cy="27.96063" rx="19.732283" ry="13.559055"/>
  </g>
</svg>