<?xml version='1.0' encoding='UTF-8'?>
<!-- Created with Inkscape (http://www.inkscape.org/) --><svg xmlns:inkscape="http://www.inkscape.org/namespaces/inkscape" xmlns:sodipodi="http://sodipodi.sourceforge.net/DTD/sodipodi-0.dtd" xmlns:xlink="http://www.w3.org/1999/xlink" xmlns="http://www.w3.org/2000/svg" xmlns:svg="http://www.w3.org/2000/svg" version="1.1" id="svg1" width="1461" height="287" viewBox="0 0 1461 287" inkscape:version="1.4.3 (0d15f75, 2025-12-25)">
  <defs id="defs1"/>
  <g inkscape:groupmode="layer" inkscape:label="Image" id="g1">
    <path style="fill:none;stroke:#0000ff;stroke-width:6;stroke-opacity:1" d="m 1421.3989,101.89546 c 0,0 4.2813,149.84628 -172.9654,139.5711 C 1071.1868,231.19139 1052.349,131.86472 1025.8048,102.75173 999.26056,73.638739 916.20292,-7.7063797 798.89469,63.363566 c 0,0 -26.54419,5.137587 -23.9754,59.938504" id="path1"/>
    <path style="fill:none;stroke:#007800;stroke-width:6;stroke-opacity:1" d="m 1261.2775,241.46656 c -4.2814,0 -47.0946,-6.85011 -49.6634,-57.36971 0,0 2.5688,-23.11914 13.7003,-34.25058" id="path2"/>
    <path style="fill:none;stroke:#007800;stroke-width:6;stroke-opacity:1" d="m 782.62567,74.495003 c 0,0 -50.5196,33.394317 -33.39431,83.913917 17.12528,50.5196 42.81322,71.06994 87.33897,34.25057" id="path3"/>
    <path style="fill:none;stroke:#ff7800;stroke-width:6;stroke-opacity:1" d="m 804.88854,22.262875 c 6.85012,11.987701 48.80707,18.837817 48.80707,18.837817 0,0 -17.98155,15.412759 -17.98155,34.250576" id="path4"/>
    <path style="fill:none;stroke:#ff7800;stroke-width:6;stroke-opacity:1" d="m 761.21906,97.614142 c 0,0 11.9877,-53.944657 -29.96926,-47.094542" id="path5"/>
    <path style="fill:none;stroke:#ff7800;stroke-width:6;stroke-opacity:1" d="m 780.91314,206.35972 c 0,0 28.25672,59.08225 -7.70638,53.0884 0,0 -17.98155,3.42505 -27.40046,-13.70024" id="path6"/>
    <path style="fill:none;stroke:#ff7800;stroke-width:6;stroke-opacity:1" d="m 1063.4804,164.40277 c 0,0 -89.0515,-6.85012 -87.33898,-53.0884" id="path7"/>
    <path style="fill:none;stroke:#ff7800;stroke-width:6;stroke-opacity:1" d="m 1072.043,166.97156 c 0,0 -53.9446,18.83782 -45.382,50.5196 8.5627,31.68178 55.6572,13.70023 55.6572,13.70023" id="path8"/>
    <path style="fill:none;stroke:#ff7800;stroke-width:6;stroke-opacity:1" d="m 1000.1168,75.351268 c 0,0 11.9877,-53.088393 54.8009,-26.544197" id="path9"/>
    <path style="fill:none;stroke:#ff7800;stroke-width:6;stroke-opacity:1" d="m 1418.8301,126.72713 c 0,0 -15.4127,-125.0146012 -58.226,-109.601842 -42.8132,15.412759 -7.7063,31.681783 -7.7063,31.681783" id="path10"/>
    <path style="fill:none;stroke:#00ffff;stroke-width:6;stroke-opacity:1" d="m 791.18831,239.75403 c 0,0 22.26288,25.68794 38.5319,0" id="path11"/>
    <path style="fill:none;stroke:#00ffff;stroke-width:6;stroke-opacity:1" d="m 1030.9423,41.100692 c 0,0 16.2691,-16.269024 4.2814,-28.256726" id="path12"/>
    <path style="fill:none;stroke:#00ffff;stroke-width:6;stroke-opacity:1" d="m 1407.6987,77.063797 c 0,0 -10.2752,40.244423 -41.957,22.262874" id="path13"/>
    <path style="fill:none;stroke:#00ffff;stroke-width:6;stroke-opacity:1" d="m 1406.8424,59.082244 c 0,0 18.8378,54.800926 37.6757,34.250576" id="path14"/>
    <ellipse style="fill:none;stroke:#ff0000;stroke-width:6;stroke-opacity:1" id="path15" cx="872.10529" cy="167.82782" rx="62.935432" ry="57.369717"/>
    <ellipse style="fill:none;stroke:#ff0000;stroke-width:6;stroke-opacity:1" id="path16" cx="1251.0023" cy="96.329742" rx="95.045349" ry="80.060722"/>
  </g>
</svg>