<?xml version='1.0' encoding='UTF-8'?>
<!-- Created with Inkscape (http://www.inkscape.org/) --><svg xmlns:inkscape="http://www.inkscape.org/namespaces/inkscape" xmlns:sodipodi="http://sodipodi.sourceforge.net/DTD/sodipodi-0.dtd" xmlns:xlink="http://www.w3.org/1999/xlink" xmlns="http://www.w3.org/2000/svg" xmlns:svg="http://www.w3.org/2000/svg" version="1.1" id="svg1" width="670" height="108" viewBox="0 0 670 108" inkscape:version="1.4.3 (0d15f75, 2025-12-25)">
  <defs id="defs1"/>
  <g inkscape:groupmode="layer" inkscape:label="Image" id="g1">
    <path style="fill:none;stroke:#0000ff;stroke-width:6;stroke-opacity:1" d="m 503.40845,74.608117 c 0,0 -32.19929,-47.120916 -69.89602,-38.482081 -37.69674,8.638834 -90.70777,40.445453 -106.41474,48.298939 -15.70697,7.853486 -34.55534,19.633715 -70.68137,1.178022 l -9.03151,-8.24616" id="path1"/>
    <path style="fill:none;stroke:#007800;stroke-width:6;stroke-opacity:1" d="m 438.22452,35.340687 c 0,0 -11.78023,-16.099646 -30.6286,-9.031509" id="path2"/>
    <ellipse style="fill:none;stroke:#ff0000;stroke-width:6;stroke-opacity:1" id="path3" cx="323.4119" cy="-209.05211" rx="53.207367" ry="34.948013" transform="rotate(40.731774)"/>
    <path style="fill:none;stroke:#ff7800;stroke-width:6;stroke-opacity:1" d="m 296.4691,94.241832 c 0,0 -21.20442,-5.49744 -4.31942,-22.775109" id="path4"/>
    <path style="fill:none;stroke:#ff7800;stroke-width:6;stroke-opacity:1" d="m 464.92637,40.052779 c 0,0 -11.38755,-17.670344 7.06814,-27.487201" id="path5"/>
    <path style="fill:none;stroke:#ff7800;stroke-width:6;stroke-opacity:1" d="m 478.2773,51.047659 c 0,0 -20.41907,-2.74872 -11.38756,24.738481" id="path6"/>
    <path style="fill:none;stroke:#ff7800;stroke-width:6;stroke-opacity:1" d="m 473.56521,43.194173 c 0,0 21.20441,-15.314298 31.80661,2.356046" id="path7"/>
  </g>
</svg>