<?xml version='1.0' encoding='UTF-8'?>
<!-- Created with Inkscape (http://www.inkscape.org/) --><svg xmlns:inkscape="http://www.inkscape.org/namespaces/inkscape" xmlns:sodipodi="http://sodipodi.sourceforge.net/DTD/sodipodi-0.dtd" xmlns:xlink="http://www.w3.org/1999/xlink" xmlns="http://www.w3.org/2000/svg" xmlns:svg="http://www.w3.org/2000/svg" version="1.1" id="svg1" width="663" height="109" viewBox="0 0 663 109" inkscape:version="1.4.3 (0d15f75, 2025-12-25)">
  <defs id="defs1"/>
  <g inkscape:groupmode="layer" inkscape:label="Image" id="g1">
    <path style="fill:none;stroke:#0000ff;stroke-width:6;stroke-opacity:1" d="m 411.10889,32.640026 c 0,0 -21.37144,-24.4800196 -46.6286,-6.60572 0,0 -2.72001,0.388572 -1.16572,15.542869 1.55429,15.154298 -17.09716,36.137172 -33.41717,31.862883 0,0 -8.54858,-2.331431 -11.26858,-16.320013 0,0 0.77714,-5.828576 -11.26858,-5.440005" id="path1"/>
    <path style="fill:none;stroke:#ff7800;stroke-width:6;stroke-opacity:1" d="m 364.48029,27.200021 c 0,0 -25.25717,2.720002 -12.04573,-14.765726" id="path2"/>
    <path style="fill:none;stroke:#ff7800;stroke-width:6;stroke-opacity:1" d="m 364.48029,38.08003 c 0,0 9.71429,12.434295 15.93144,1.165715" id="path3"/>
    <path style="fill:none;stroke:#ff7800;stroke-width:6;stroke-opacity:1" d="m 405.28032,59.062903 c 0,0 -26.42288,10.880009 -15.93144,-10.102865" id="path4"/>
    <path style="fill:none;stroke:#ff7800;stroke-width:6;stroke-opacity:1" d="m 357.48599,62.560049 c 0,0 3.49715,24.480019 20.20573,16.320013 0,0 5.82858,-6.217148 -0.38857,-11.657152" id="path5"/>
    <path style="fill:none;stroke:#ff7800;stroke-width:6;stroke-opacity:1" d="m 326.40026,72.274342 c 0,0 -12.82287,6.994292 -3.10858,16.320013 9.7143,9.325722 13.60001,-2.33143 13.60001,-2.33143" id="path6"/>
    <path style="fill:none;stroke:#ff7800;stroke-width:6;stroke-opacity:1" d="m 320.18311,55.565758 c 0,0 2.33143,-15.54287 12.04572,-11.657152 9.71429,3.885717 4.66286,12.045724 4.66286,12.045724" id="path7"/>
    <ellipse style="fill:none;stroke:#ff0000;stroke-width:6;stroke-opacity:1" id="path8" cx="446.99661" cy="-38.610565" rx="39.245747" ry="42.742889" transform="rotate(11.951056)"/>
    <path style="fill:none;stroke:#00ffff;stroke-width:6;stroke-opacity:1" d="m 327.95454,42.354319 c 0,0 4.66286,-18.262872 -9.71429,-12.434296" id="path9"/>
    <path style="fill:none;stroke:#00ffff;stroke-width:6;stroke-opacity:1" d="m 376.13744,80.82292 c 0,0 15.1543,6.217148 1.16571,16.708585" id="path10"/>
  </g>
</svg>