<svg xmlns="http://www.w3.org/2000/svg" id="structural-svg--proto_sw_2_3--production-seed-20260924" data-prototype-id="proto_sw_2_3" data-production-seed="20260924" data-backbone-seed="2851481760" data-flower-seed="1575489127" data-branch-seed="693261803" data-unit-seed="2280073275" data-backbone-variant-id="expanded" data-density-level="medium" data-source-case="SW2-A_seed20260924_width1.2" data-repeat-mode="triple" viewBox="-1.08 0 3.16 1.1875" width="3160" height="1188"><rect x="-1.08" y="0" width="3.16" height="1.1875" fill="#f1efe9"/><metadata>role_color_identity_v2: backbone=#0000ff; primary_branch=#ff9900; secondary_branch=#00ffff; flower_support=#007800; flower_anchor=#ff0000; unit_boundary=#000000(dashed). data-role is authoritative; stroke color is a visual fallback.</metadata><g id="unit-boundaries" data-instance-id="unit-boundaries" data-role="unit_boundary"><line id="unit-boundary--00" data-instance-id="unit-boundary--00" data-boundary-x="-1" x1="-1" y1="0" x2="-1" y2="1.1875" stroke="#000000" stroke-dasharray="0.012 0.008" stroke-width="0.004"/><line id="unit-boundary--01" data-instance-id="unit-boundary--01" data-boundary-x="0" x1="0" y1="0" x2="0" y2="1.1875" stroke="#000000" stroke-dasharray="0.012 0.008" stroke-width="0.004"/><line id="unit-boundary--02" data-instance-id="unit-boundary--02" data-boundary-x="1" x1="1" y1="0" x2="1" y2="1.1875" stroke="#000000" stroke-dasharray="0.012 0.008" stroke-width="0.004"/><line id="unit-boundary--03" data-instance-id="unit-boundary--03" data-boundary-x="2" x1="2" y1="0" x2="2" y2="1.1875" stroke="#000000" stroke-dasharray="0.012 0.008" stroke-width="0.004"/></g><g id="backbone-layer" data-instance-id="backbone-layer" data-role="backbone"><g id="backbone--repeat_m1" data-instance-id="backbone--repeat_m1" data-repeat-id="repeat_m1" data-repeat-shift="-1"><polyline points="-1,0.6514 -0.9865,0.6534 -0.9732,0.6559 -0.9601,0.6585 -0.9473,0.6613 -0.9345,0.6641 -0.9219,0.667 -0.9094,0.67 -0.897,0.6731 -0.8848,0.6763 -0.8726,0.6796 -0.8605,0.6832 -0.8485,0.6869 -0.8366,0.6909 -0.825,0.6953 -0.8121,0.6999 -0.7982,0.703 -0.7841,0.7036 -0.7704,0.7026 -0.757,0.7006 -0.7439,0.698 -0.7311,0.6949 -0.7186,0.6916 -0.7062,0.6881 -0.6941,0.6846 -0.6822,0.6811 -0.6705,0.6775 -0.6589,0.6739 -0.6474,0.6702 -0.636,0.6665 -0.6248,0.6626 -0.6135,0.6586 -0.602,0.6543 -0.59,0.6499 -0.5776,0.6454 -0.5648,0.6411 -0.5516,0.6369 -0.538,0.633 -0.5241,0.6297 -0.5101,0.627 -0.496,0.6252 -0.482,0.6243 -0.468,0.6244 -0.4544,0.6256 -0.441,0.6278 -0.428,0.6308 -0.4153,0.6344 -0.403,0.6384 -0.391,0.6428 -0.3794,0.6473 -0.3681,0.6519 -0.3569,0.6565 -0.346,0.6612 -0.3353,0.6658 -0.3246,0.6705 -0.3138,0.6753 -0.3028,0.6802 -0.2912,0.6852 -0.2781,0.6898 -0.2645,0.6926 -0.2513,0.6952 -0.238,0.6987 -0.2242,0.7016 -0.2101,0.7027 -0.1963,0.7017 -0.1828,0.6991 -0.1699,0.6955 -0.1575,0.6914 -0.1454,0.6871 -0.1337,0.6827 -0.1222,0.6783 -0.111,0.6739 -0.0999,0.6695 -0.0891,0.665 -0.078,0.6607 -0.0662,0.6567 -0.0538,0.6532 -0.0408,0.6503 -0.0271,0.6485 -0.013,0.6486 0,0.6514" fill="none" id="repeat_m1--backbone" data-instance-id="repeat_m1--backbone" data-repeat-id="repeat_m1" data-repeat-shift="-1" stroke="#0000ff" stroke-width="0.007" stroke-linejoin="round" stroke-linecap="round"/></g><g id="backbone--repeat_0" data-instance-id="backbone--repeat_0" data-repeat-id="repeat_0" data-repeat-shift="0"><polyline points="0,0.6514 0.0135,0.6534 0.0268,0.6559 0.0399,0.6585 0.0527,0.6613 0.0655,0.6641 0.0781,0.667 0.0906,0.67 0.103,0.6731 0.1152,0.6763 0.1274,0.6796 0.1395,0.6832 0.1515,0.6869 0.1634,0.6909 0.175,0.6953 0.1879,0.6999 0.2018,0.703 0.2159,0.7036 0.2296,0.7026 0.243,0.7006 0.2561,0.698 0.2689,0.6949 0.2814,0.6916 0.2938,0.6881 0.3059,0.6846 0.3178,0.6811 0.3295,0.6775 0.3411,0.6739 0.3526,0.6702 0.364,0.6665 0.3752,0.6626 0.3865,0.6586 0.398,0.6543 0.41,0.6499 0.4224,0.6454 0.4352,0.6411 0.4484,0.6369 0.462,0.633 0.4759,0.6297 0.4899,0.627 0.504,0.6252 0.518,0.6243 0.532,0.6244 0.5456,0.6256 0.559,0.6278 0.572,0.6308 0.5847,0.6344 0.597,0.6384 0.609,0.6428 0.6206,0.6473 0.6319,0.6519 0.6431,0.6565 0.654,0.6612 0.6647,0.6658 0.6754,0.6705 0.6862,0.6753 0.6972,0.6802 0.7088,0.6852 0.7219,0.6898 0.7355,0.6926 0.7487,0.6952 0.762,0.6987 0.7758,0.7016 0.7899,0.7027 0.8037,0.7017 0.8172,0.6991 0.8301,0.6955 0.8425,0.6914 0.8546,0.6871 0.8663,0.6827 0.8778,0.6783 0.889,0.6739 0.9001,0.6695 0.9109,0.665 0.922,0.6607 0.9338,0.6567 0.9462,0.6532 0.9592,0.6503 0.9729,0.6485 0.987,0.6486 1,0.6514" fill="none" id="repeat_0--backbone" data-instance-id="repeat_0--backbone" data-repeat-id="repeat_0" data-repeat-shift="0" stroke="#0000ff" stroke-width="0.014" stroke-linejoin="round" stroke-linecap="round"/></g><g id="backbone--repeat_p1" data-instance-id="backbone--repeat_p1" data-repeat-id="repeat_p1" data-repeat-shift="1"><polyline points="1,0.6514 1.0135,0.6534 1.0268,0.6559 1.0399,0.6585 1.0527,0.6613 1.0655,0.6641 1.0781,0.667 1.0906,0.67 1.103,0.6731 1.1152,0.6763 1.1274,0.6796 1.1395,0.6832 1.1515,0.6869 1.1634,0.6909 1.175,0.6953 1.1879,0.6999 1.2018,0.703 1.2159,0.7036 1.2296,0.7026 1.243,0.7006 1.2561,0.698 1.2689,0.6949 1.2814,0.6916 1.2938,0.6881 1.3059,0.6846 1.3178,0.6811 1.3295,0.6775 1.3411,0.6739 1.3526,0.6702 1.364,0.6665 1.3752,0.6626 1.3865,0.6586 1.398,0.6543 1.41,0.6499 1.4224,0.6454 1.4352,0.6411 1.4484,0.6369 1.462,0.633 1.4759,0.6297 1.4899,0.627 1.504,0.6252 1.518,0.6243 1.532,0.6244 1.5456,0.6256 1.559,0.6278 1.572,0.6308 1.5847,0.6344 1.597,0.6384 1.609,0.6428 1.6206,0.6473 1.6319,0.6519 1.6431,0.6565 1.654,0.6612 1.6647,0.6658 1.6754,0.6705 1.6862,0.6753 1.6972,0.6802 1.7088,0.6852 1.7219,0.6898 1.7355,0.6926 1.7487,0.6952 1.762,0.6987 1.7758,0.7016 1.7899,0.7027 1.8037,0.7017 1.8172,0.6991 1.8301,0.6955 1.8425,0.6914 1.8546,0.6871 1.8663,0.6827 1.8778,0.6783 1.889,0.6739 1.9001,0.6695 1.9109,0.665 1.922,0.6607 1.9338,0.6567 1.9462,0.6532 1.9592,0.6503 1.9729,0.6485 1.987,0.6486 2,0.6514" fill="none" id="repeat_p1--backbone" data-instance-id="repeat_p1--backbone" data-repeat-id="repeat_p1" data-repeat-shift="1" stroke="#0000ff" stroke-width="0.007" stroke-linejoin="round" stroke-linecap="round"/></g></g><g id="flower-support-layer" data-instance-id="flower-support-layer" data-role="flower_support"><g id="flower-support--repeat_m1" data-instance-id="flower-support--repeat_m1" data-repeat-id="repeat_m1" data-repeat-shift="-1"></g><g id="flower-support--repeat_0" data-instance-id="flower-support--repeat_0" data-repeat-id="repeat_0" data-repeat-shift="0"></g><g id="flower-support--repeat_p1" data-instance-id="flower-support--repeat_p1" data-repeat-id="repeat_p1" data-repeat-shift="1"></g></g><g id="flower-anchor-layer" data-instance-id="flower-anchor-layer" data-role="flower_anchor"><g id="flower-anchor--repeat_m1" data-instance-id="flower-anchor--repeat_m1" data-repeat-id="repeat_m1" data-repeat-shift="-1"><ellipse id="repeat_m1--flower-anchor--flower_1" data-instance-id="repeat_m1--flower-anchor--flower_1" data-repeat-id="repeat_m1" data-repeat-shift="-1" cx="-0.5096" cy="0.6908" rx="0.1532" ry="0.2608" fill="#fff7fb" stroke="#ff0000" stroke-width="0.006" data-flower-id="flower_1"/></g><g id="flower-anchor--repeat_0" data-instance-id="flower-anchor--repeat_0" data-repeat-id="repeat_0" data-repeat-shift="0"><ellipse id="repeat_0--flower-anchor--flower_1" data-instance-id="repeat_0--flower-anchor--flower_1" data-repeat-id="repeat_0" data-repeat-shift="0" cx="0.4904" cy="0.6908" rx="0.1532" ry="0.2608" fill="#fff7fb" stroke="#ff0000" stroke-width="0.006" data-flower-id="flower_1"/></g><g id="flower-anchor--repeat_p1" data-instance-id="flower-anchor--repeat_p1" data-repeat-id="repeat_p1" data-repeat-shift="1"><ellipse id="repeat_p1--flower-anchor--flower_1" data-instance-id="repeat_p1--flower-anchor--flower_1" data-repeat-id="repeat_p1" data-repeat-shift="1" cx="1.4904" cy="0.6908" rx="0.1532" ry="0.2608" fill="#fff7fb" stroke="#ff0000" stroke-width="0.006" data-flower-id="flower_1"/></g></g><g id="branches-layer" data-instance-id="branches-layer" data-role="branches"><g id="branches--repeat_m1" data-instance-id="branches--repeat_m1" data-repeat-id="repeat_m1" data-repeat-shift="-1"><path id="repeat_m1--curve--proto_sw_2_3__seed_693261803__global_l1_flow_v3__density_medium__selected_l1_004.L1" data-instance-id="repeat_m1--curve--proto_sw_2_3__seed_693261803__global_l1_flow_v3__density_medium__selected_l1_004.L1" data-repeat-id="repeat_m1" data-repeat-shift="-1" d="M -0.3334,0.6666 C -0.1601,0.709 -0.294,0.4444 -0.1356,0.4752" fill="none" stroke="#ff9900" stroke-width="0.01" stroke-linejoin="round" stroke-linecap="round" data-role="primary_branch" data-level="L1" data-curve-id="proto_sw_2_3__seed_693261803__global_l1_flow_v3__density_medium__selected_l1_004.L1" data-parent-curve-id="None" data-lane-id="selected_l1_004" data-unit-id="proto_sw_2_3__seed_693261803__global_l1_flow_v3__density_medium__selected_l1_004__Y-C__compact_c__context_opposed__sample_0104"/><path id="repeat_m1--curve--proto_sw_2_3__seed_693261803__global_l1_flow_v3__density_medium__selected_l1_004.L2.1" data-instance-id="repeat_m1--curve--proto_sw_2_3__seed_693261803__global_l1_flow_v3__density_medium__selected_l1_004.L2.1" data-repeat-id="repeat_m1" data-repeat-shift="-1" d="M -0.2072,0.4956 C -0.1496,0.4847 -0.1139,0.4748 -0.0692,0.4368" fill="none" stroke="#00ffff" stroke-width="0.007" stroke-linejoin="round" stroke-linecap="round" data-role="secondary_branch" data-level="L2" data-curve-id="proto_sw_2_3__seed_693261803__global_l1_flow_v3__density_medium__selected_l1_004.L2.1" data-parent-curve-id="proto_sw_2_3__seed_693261803__global_l1_flow_v3__density_medium__selected_l1_004.L1" data-lane-id="selected_l1_004" data-unit-id="proto_sw_2_3__seed_693261803__global_l1_flow_v3__density_medium__selected_l1_004__Y-C__compact_c__context_opposed__sample_0104"/><path id="repeat_m1--curve--proto_sw_2_3__seed_693261803__global_l1_flow_v3__density_medium__selected_l1_002.L1" data-instance-id="repeat_m1--curve--proto_sw_2_3__seed_693261803__global_l1_flow_v3__density_medium__selected_l1_002.L1" data-repeat-id="repeat_m1" data-repeat-shift="-1" d="M -0.82,0.6971 C -0.7768,0.6876 -0.7823,0.634 -0.7855,0.5898" fill="none" stroke="#ff9900" stroke-width="0.01" stroke-linejoin="round" stroke-linecap="round" data-role="primary_branch" data-level="L1" data-curve-id="proto_sw_2_3__seed_693261803__global_l1_flow_v3__density_medium__selected_l1_002.L1" data-parent-curve-id="None" data-lane-id="selected_l1_002" data-unit-id="proto_sw_2_3__seed_693261803__global_l1_flow_v3__density_medium__selected_l1_002__L1-Only__independent_l1__context_preferred__sample_0034"/><path id="repeat_m1--curve--proto_sw_2_3__seed_693261803__global_l1_flow_v3__density_medium__selected_l1_003.L1" data-instance-id="repeat_m1--curve--proto_sw_2_3__seed_693261803__global_l1_flow_v3__density_medium__selected_l1_003.L1" data-repeat-id="repeat_m1" data-repeat-shift="-1" d="M -0.7228,0.6927 C -0.8352,0.7344 -0.8636,0.8129 -0.8479,0.8501" fill="none" stroke="#ff9900" stroke-width="0.01" stroke-linejoin="round" stroke-linecap="round" data-role="primary_branch" data-level="L1" data-curve-id="proto_sw_2_3__seed_693261803__global_l1_flow_v3__density_medium__selected_l1_003.L1" data-parent-curve-id="None" data-lane-id="selected_l1_003" data-unit-id="proto_sw_2_3__seed_693261803__global_l1_flow_v3__density_medium__selected_l1_003__L1-Only__independent_l1__context_preferred__sample_0068"/><path id="repeat_m1--curve--proto_sw_2_3__seed_693261803__global_l1_flow_v3__density_medium__selected_l1_006.L1" data-instance-id="repeat_m1--curve--proto_sw_2_3__seed_693261803__global_l1_flow_v3__density_medium__selected_l1_006.L1" data-repeat-id="repeat_m1" data-repeat-shift="-1" d="M -0.002,0.6509 C -0.1651,0.654 -0.1358,0.5358 -0.1748,0.5481" fill="none" stroke="#ff9900" stroke-width="0.01" stroke-linejoin="round" stroke-linecap="round" data-role="primary_branch" data-level="L1" data-curve-id="proto_sw_2_3__seed_693261803__global_l1_flow_v3__density_medium__selected_l1_006.L1" data-parent-curve-id="None" data-lane-id="selected_l1_006" data-unit-id="proto_sw_2_3__seed_693261803__global_l1_flow_v3__density_medium__selected_l1_006__L1-Only__independent_l1__context_preferred__sample_0170"/><path id="repeat_m1--curve--proto_sw_2_3__seed_693261803__global_l1_flow_v3__density_medium__selected_l1_001.L1" data-instance-id="repeat_m1--curve--proto_sw_2_3__seed_693261803__global_l1_flow_v3__density_medium__selected_l1_001.L1" data-repeat-id="repeat_m1" data-repeat-shift="-1" d="M -0.908,0.6704 C -1.0189,0.654 -1.0169,0.7477 -1.0983,0.7352" fill="none" stroke="#ff9900" stroke-width="0.01" stroke-linejoin="round" stroke-linecap="round" data-role="primary_branch" data-level="L1" data-curve-id="proto_sw_2_3__seed_693261803__global_l1_flow_v3__density_medium__selected_l1_001.L1" data-parent-curve-id="None" data-lane-id="selected_l1_001" data-unit-id="proto_sw_2_3__seed_693261803__global_l1_flow_v3__density_medium__selected_l1_001__L1-Only__independent_l1__context_preferred__sample_0000"/><path id="repeat_m1--curve--proto_sw_2_3__seed_693261803__global_l1_flow_v3__density_medium__selected_l1_005.L1" data-instance-id="repeat_m1--curve--proto_sw_2_3__seed_693261803__global_l1_flow_v3__density_medium__selected_l1_005.L1" data-repeat-id="repeat_m1" data-repeat-shift="-1" d="M -0.179,0.698 C -0.2334,0.7263 -0.2541,0.7909 -0.2639,0.8803" fill="none" stroke="#ff9900" stroke-width="0.01" stroke-linejoin="round" stroke-linecap="round" data-role="primary_branch" data-level="L1" data-curve-id="proto_sw_2_3__seed_693261803__global_l1_flow_v3__density_medium__selected_l1_005.L1" data-parent-curve-id="None" data-lane-id="selected_l1_005" data-unit-id="proto_sw_2_3__seed_693261803__global_l1_flow_v3__density_medium__selected_l1_005__L1-Only__independent_l1__context_preferred__sample_0136"/></g><g id="branches--repeat_0" data-instance-id="branches--repeat_0" data-repeat-id="repeat_0" data-repeat-shift="0"><path id="repeat_0--curve--proto_sw_2_3__seed_693261803__global_l1_flow_v3__density_medium__selected_l1_004.L1" data-instance-id="repeat_0--curve--proto_sw_2_3__seed_693261803__global_l1_flow_v3__density_medium__selected_l1_004.L1" data-repeat-id="repeat_0" data-repeat-shift="0" d="M 0.6666,0.6666 C 0.8399,0.709 0.706,0.4444 0.8644,0.4752" fill="none" stroke="#ff9900" stroke-width="0.01" stroke-linejoin="round" stroke-linecap="round" data-role="primary_branch" data-level="L1" data-curve-id="proto_sw_2_3__seed_693261803__global_l1_flow_v3__density_medium__selected_l1_004.L1" data-parent-curve-id="None" data-lane-id="selected_l1_004" data-unit-id="proto_sw_2_3__seed_693261803__global_l1_flow_v3__density_medium__selected_l1_004__Y-C__compact_c__context_opposed__sample_0104"/><path id="repeat_0--curve--proto_sw_2_3__seed_693261803__global_l1_flow_v3__density_medium__selected_l1_004.L2.1" data-instance-id="repeat_0--curve--proto_sw_2_3__seed_693261803__global_l1_flow_v3__density_medium__selected_l1_004.L2.1" data-repeat-id="repeat_0" data-repeat-shift="0" d="M 0.7928,0.4956 C 0.8504,0.4847 0.8861,0.4748 0.9308,0.4368" fill="none" stroke="#00ffff" stroke-width="0.007" stroke-linejoin="round" stroke-linecap="round" data-role="secondary_branch" data-level="L2" data-curve-id="proto_sw_2_3__seed_693261803__global_l1_flow_v3__density_medium__selected_l1_004.L2.1" data-parent-curve-id="proto_sw_2_3__seed_693261803__global_l1_flow_v3__density_medium__selected_l1_004.L1" data-lane-id="selected_l1_004" data-unit-id="proto_sw_2_3__seed_693261803__global_l1_flow_v3__density_medium__selected_l1_004__Y-C__compact_c__context_opposed__sample_0104"/><path id="repeat_0--curve--proto_sw_2_3__seed_693261803__global_l1_flow_v3__density_medium__selected_l1_002.L1" data-instance-id="repeat_0--curve--proto_sw_2_3__seed_693261803__global_l1_flow_v3__density_medium__selected_l1_002.L1" data-repeat-id="repeat_0" data-repeat-shift="0" d="M 0.18,0.6971 C 0.2232,0.6876 0.2177,0.634 0.2145,0.5898" fill="none" stroke="#ff9900" stroke-width="0.01" stroke-linejoin="round" stroke-linecap="round" data-role="primary_branch" data-level="L1" data-curve-id="proto_sw_2_3__seed_693261803__global_l1_flow_v3__density_medium__selected_l1_002.L1" data-parent-curve-id="None" data-lane-id="selected_l1_002" data-unit-id="proto_sw_2_3__seed_693261803__global_l1_flow_v3__density_medium__selected_l1_002__L1-Only__independent_l1__context_preferred__sample_0034"/><path id="repeat_0--curve--proto_sw_2_3__seed_693261803__global_l1_flow_v3__density_medium__selected_l1_003.L1" data-instance-id="repeat_0--curve--proto_sw_2_3__seed_693261803__global_l1_flow_v3__density_medium__selected_l1_003.L1" data-repeat-id="repeat_0" data-repeat-shift="0" d="M 0.2772,0.6927 C 0.1648,0.7344 0.1364,0.8129 0.1521,0.8501" fill="none" stroke="#ff9900" stroke-width="0.01" stroke-linejoin="round" stroke-linecap="round" data-role="primary_branch" data-level="L1" data-curve-id="proto_sw_2_3__seed_693261803__global_l1_flow_v3__density_medium__selected_l1_003.L1" data-parent-curve-id="None" data-lane-id="selected_l1_003" data-unit-id="proto_sw_2_3__seed_693261803__global_l1_flow_v3__density_medium__selected_l1_003__L1-Only__independent_l1__context_preferred__sample_0068"/><path id="repeat_0--curve--proto_sw_2_3__seed_693261803__global_l1_flow_v3__density_medium__selected_l1_006.L1" data-instance-id="repeat_0--curve--proto_sw_2_3__seed_693261803__global_l1_flow_v3__density_medium__selected_l1_006.L1" data-repeat-id="repeat_0" data-repeat-shift="0" d="M 0.998,0.6509 C 0.8349,0.654 0.8642,0.5358 0.8252,0.5481" fill="none" stroke="#ff9900" stroke-width="0.01" stroke-linejoin="round" stroke-linecap="round" data-role="primary_branch" data-level="L1" data-curve-id="proto_sw_2_3__seed_693261803__global_l1_flow_v3__density_medium__selected_l1_006.L1" data-parent-curve-id="None" data-lane-id="selected_l1_006" data-unit-id="proto_sw_2_3__seed_693261803__global_l1_flow_v3__density_medium__selected_l1_006__L1-Only__independent_l1__context_preferred__sample_0170"/><path id="repeat_0--curve--proto_sw_2_3__seed_693261803__global_l1_flow_v3__density_medium__selected_l1_001.L1" data-instance-id="repeat_0--curve--proto_sw_2_3__seed_693261803__global_l1_flow_v3__density_medium__selected_l1_001.L1" data-repeat-id="repeat_0" data-repeat-shift="0" d="M 0.092,0.6704 C -0.0189,0.654 -0.0169,0.7477 -0.0983,0.7352" fill="none" stroke="#ff9900" stroke-width="0.01" stroke-linejoin="round" stroke-linecap="round" data-role="primary_branch" data-level="L1" data-curve-id="proto_sw_2_3__seed_693261803__global_l1_flow_v3__density_medium__selected_l1_001.L1" data-parent-curve-id="None" data-lane-id="selected_l1_001" data-unit-id="proto_sw_2_3__seed_693261803__global_l1_flow_v3__density_medium__selected_l1_001__L1-Only__independent_l1__context_preferred__sample_0000"/><path id="repeat_0--curve--proto_sw_2_3__seed_693261803__global_l1_flow_v3__density_medium__selected_l1_005.L1" data-instance-id="repeat_0--curve--proto_sw_2_3__seed_693261803__global_l1_flow_v3__density_medium__selected_l1_005.L1" data-repeat-id="repeat_0" data-repeat-shift="0" d="M 0.821,0.698 C 0.7666,0.7263 0.7459,0.7909 0.7361,0.8803" fill="none" stroke="#ff9900" stroke-width="0.01" stroke-linejoin="round" stroke-linecap="round" data-role="primary_branch" data-level="L1" data-curve-id="proto_sw_2_3__seed_693261803__global_l1_flow_v3__density_medium__selected_l1_005.L1" data-parent-curve-id="None" data-lane-id="selected_l1_005" data-unit-id="proto_sw_2_3__seed_693261803__global_l1_flow_v3__density_medium__selected_l1_005__L1-Only__independent_l1__context_preferred__sample_0136"/></g><g id="branches--repeat_p1" data-instance-id="branches--repeat_p1" data-repeat-id="repeat_p1" data-repeat-shift="1"><path id="repeat_p1--curve--proto_sw_2_3__seed_693261803__global_l1_flow_v3__density_medium__selected_l1_004.L1" data-instance-id="repeat_p1--curve--proto_sw_2_3__seed_693261803__global_l1_flow_v3__density_medium__selected_l1_004.L1" data-repeat-id="repeat_p1" data-repeat-shift="1" d="M 1.6666,0.6666 C 1.8399,0.709 1.706,0.4444 1.8644,0.4752" fill="none" stroke="#ff9900" stroke-width="0.01" stroke-linejoin="round" stroke-linecap="round" data-role="primary_branch" data-level="L1" data-curve-id="proto_sw_2_3__seed_693261803__global_l1_flow_v3__density_medium__selected_l1_004.L1" data-parent-curve-id="None" data-lane-id="selected_l1_004" data-unit-id="proto_sw_2_3__seed_693261803__global_l1_flow_v3__density_medium__selected_l1_004__Y-C__compact_c__context_opposed__sample_0104"/><path id="repeat_p1--curve--proto_sw_2_3__seed_693261803__global_l1_flow_v3__density_medium__selected_l1_004.L2.1" data-instance-id="repeat_p1--curve--proto_sw_2_3__seed_693261803__global_l1_flow_v3__density_medium__selected_l1_004.L2.1" data-repeat-id="repeat_p1" data-repeat-shift="1" d="M 1.7928,0.4956 C 1.8504,0.4847 1.8861,0.4748 1.9308,0.4368" fill="none" stroke="#00ffff" stroke-width="0.007" stroke-linejoin="round" stroke-linecap="round" data-role="secondary_branch" data-level="L2" data-curve-id="proto_sw_2_3__seed_693261803__global_l1_flow_v3__density_medium__selected_l1_004.L2.1" data-parent-curve-id="proto_sw_2_3__seed_693261803__global_l1_flow_v3__density_medium__selected_l1_004.L1" data-lane-id="selected_l1_004" data-unit-id="proto_sw_2_3__seed_693261803__global_l1_flow_v3__density_medium__selected_l1_004__Y-C__compact_c__context_opposed__sample_0104"/><path id="repeat_p1--curve--proto_sw_2_3__seed_693261803__global_l1_flow_v3__density_medium__selected_l1_002.L1" data-instance-id="repeat_p1--curve--proto_sw_2_3__seed_693261803__global_l1_flow_v3__density_medium__selected_l1_002.L1" data-repeat-id="repeat_p1" data-repeat-shift="1" d="M 1.18,0.6971 C 1.2232,0.6876 1.2177,0.634 1.2145,0.5898" fill="none" stroke="#ff9900" stroke-width="0.01" stroke-linejoin="round" stroke-linecap="round" data-role="primary_branch" data-level="L1" data-curve-id="proto_sw_2_3__seed_693261803__global_l1_flow_v3__density_medium__selected_l1_002.L1" data-parent-curve-id="None" data-lane-id="selected_l1_002" data-unit-id="proto_sw_2_3__seed_693261803__global_l1_flow_v3__density_medium__selected_l1_002__L1-Only__independent_l1__context_preferred__sample_0034"/><path id="repeat_p1--curve--proto_sw_2_3__seed_693261803__global_l1_flow_v3__density_medium__selected_l1_003.L1" data-instance-id="repeat_p1--curve--proto_sw_2_3__seed_693261803__global_l1_flow_v3__density_medium__selected_l1_003.L1" data-repeat-id="repeat_p1" data-repeat-shift="1" d="M 1.2772,0.6927 C 1.1648,0.7344 1.1364,0.8129 1.1521,0.8501" fill="none" stroke="#ff9900" stroke-width="0.01" stroke-linejoin="round" stroke-linecap="round" data-role="primary_branch" data-level="L1" data-curve-id="proto_sw_2_3__seed_693261803__global_l1_flow_v3__density_medium__selected_l1_003.L1" data-parent-curve-id="None" data-lane-id="selected_l1_003" data-unit-id="proto_sw_2_3__seed_693261803__global_l1_flow_v3__density_medium__selected_l1_003__L1-Only__independent_l1__context_preferred__sample_0068"/><path id="repeat_p1--curve--proto_sw_2_3__seed_693261803__global_l1_flow_v3__density_medium__selected_l1_006.L1" data-instance-id="repeat_p1--curve--proto_sw_2_3__seed_693261803__global_l1_flow_v3__density_medium__selected_l1_006.L1" data-repeat-id="repeat_p1" data-repeat-shift="1" d="M 1.998,0.6509 C 1.8349,0.654 1.8642,0.5358 1.8252,0.5481" fill="none" stroke="#ff9900" stroke-width="0.01" stroke-linejoin="round" stroke-linecap="round" data-role="primary_branch" data-level="L1" data-curve-id="proto_sw_2_3__seed_693261803__global_l1_flow_v3__density_medium__selected_l1_006.L1" data-parent-curve-id="None" data-lane-id="selected_l1_006" data-unit-id="proto_sw_2_3__seed_693261803__global_l1_flow_v3__density_medium__selected_l1_006__L1-Only__independent_l1__context_preferred__sample_0170"/><path id="repeat_p1--curve--proto_sw_2_3__seed_693261803__global_l1_flow_v3__density_medium__selected_l1_001.L1" data-instance-id="repeat_p1--curve--proto_sw_2_3__seed_693261803__global_l1_flow_v3__density_medium__selected_l1_001.L1" data-repeat-id="repeat_p1" data-repeat-shift="1" d="M 1.092,0.6704 C 0.9811,0.654 0.9831,0.7477 0.9017,0.7352" fill="none" stroke="#ff9900" stroke-width="0.01" stroke-linejoin="round" stroke-linecap="round" data-role="primary_branch" data-level="L1" data-curve-id="proto_sw_2_3__seed_693261803__global_l1_flow_v3__density_medium__selected_l1_001.L1" data-parent-curve-id="None" data-lane-id="selected_l1_001" data-unit-id="proto_sw_2_3__seed_693261803__global_l1_flow_v3__density_medium__selected_l1_001__L1-Only__independent_l1__context_preferred__sample_0000"/><path id="repeat_p1--curve--proto_sw_2_3__seed_693261803__global_l1_flow_v3__density_medium__selected_l1_005.L1" data-instance-id="repeat_p1--curve--proto_sw_2_3__seed_693261803__global_l1_flow_v3__density_medium__selected_l1_005.L1" data-repeat-id="repeat_p1" data-repeat-shift="1" d="M 1.821,0.698 C 1.7666,0.7263 1.7459,0.7909 1.7361,0.8803" fill="none" stroke="#ff9900" stroke-width="0.01" stroke-linejoin="round" stroke-linecap="round" data-role="primary_branch" data-level="L1" data-curve-id="proto_sw_2_3__seed_693261803__global_l1_flow_v3__density_medium__selected_l1_005.L1" data-parent-curve-id="None" data-lane-id="selected_l1_005" data-unit-id="proto_sw_2_3__seed_693261803__global_l1_flow_v3__density_medium__selected_l1_005__L1-Only__independent_l1__context_preferred__sample_0136"/></g></g></svg>