<svg xmlns="http://www.w3.org/2000/svg" id="structural-svg--proto_sw_3_2--production-seed-20260924" data-prototype-id="proto_sw_3_2" data-production-seed="20260924" data-backbone-seed="2851481760" data-flower-seed="1575489127" data-branch-seed="693261803" data-unit-seed="2280073275" data-backbone-variant-id="expanded" data-density-level="medium" data-source-case="SW3-B_seed20260924_width1.0" data-repeat-mode="triple" viewBox="-1.08 0 3.16 1.1875" width="3160" height="1188"><rect x="-1.08" y="0" width="3.16" height="1.1875" fill="#f1efe9"/><metadata>role_color_identity_v2: backbone=#0000ff; primary_branch=#ff9900; secondary_branch=#00ffff; flower_support=#007800; flower_anchor=#ff0000; unit_boundary=#000000(dashed). data-role is authoritative; stroke color is a visual fallback.</metadata><g id="unit-boundaries" data-instance-id="unit-boundaries" data-role="unit_boundary"><line id="unit-boundary--00" data-instance-id="unit-boundary--00" data-boundary-x="-1" x1="-1" y1="0" x2="-1" y2="1.1875" stroke="#000000" stroke-dasharray="0.012 0.008" stroke-width="0.004"/><line id="unit-boundary--01" data-instance-id="unit-boundary--01" data-boundary-x="0" x1="0" y1="0" x2="0" y2="1.1875" stroke="#000000" stroke-dasharray="0.012 0.008" stroke-width="0.004"/><line id="unit-boundary--02" data-instance-id="unit-boundary--02" data-boundary-x="1" x1="1" y1="0" x2="1" y2="1.1875" stroke="#000000" stroke-dasharray="0.012 0.008" stroke-width="0.004"/><line id="unit-boundary--03" data-instance-id="unit-boundary--03" data-boundary-x="2" x1="2" y1="0" x2="2" y2="1.1875" stroke="#000000" stroke-dasharray="0.012 0.008" stroke-width="0.004"/></g><g id="backbone-layer" data-instance-id="backbone-layer" data-role="backbone"><g id="backbone--repeat_m1" data-instance-id="backbone--repeat_m1" data-repeat-id="repeat_m1" data-repeat-shift="-1"><polyline points="-1,0.9177 -0.988,0.9102 -0.9761,0.9029 -0.9641,0.8957 -0.9521,0.8886 -0.9402,0.8816 -0.9282,0.8747 -0.9162,0.8679 -0.9043,0.8611 -0.8923,0.8544 -0.8803,0.8476 -0.8684,0.8409 -0.8564,0.8341 -0.8444,0.8272 -0.8325,0.8202 -0.8205,0.8131 -0.8085,0.8057 -0.7966,0.7981 -0.7846,0.7903 -0.7726,0.7821 -0.7611,0.7735 -0.7508,0.7639 -0.7398,0.7524 -0.7283,0.741 -0.7163,0.7297 -0.7037,0.7185 -0.6907,0.7079 -0.6773,0.698 -0.6634,0.6893 -0.6492,0.6822 -0.6346,0.6772 -0.6198,0.6746 -0.6047,0.6746 -0.5896,0.6773 -0.5745,0.6825 -0.5595,0.6898 -0.5447,0.6987 -0.5303,0.7087 -0.5162,0.7199 -0.5025,0.7312 -0.4892,0.7436 -0.4765,0.7576 -0.4641,0.7703 -0.4521,0.7821 -0.4432,0.7932 -0.4342,0.8037 -0.4251,0.8137 -0.4158,0.8234 -0.4065,0.8327 -0.3969,0.8419 -0.3873,0.8509 -0.3775,0.8599 -0.3675,0.8687 -0.3574,0.8774 -0.3471,0.886 -0.3366,0.8943 -0.3259,0.9024 -0.315,0.91 -0.3038,0.917 -0.2923,0.9232 -0.2804,0.9289 -0.2681,0.9342 -0.2553,0.9391 -0.2421,0.9435 -0.2283,0.9475 -0.2143,0.951 -0.2001,0.9539 -0.1857,0.9564 -0.1711,0.9582 -0.1563,0.9595 -0.1415,0.96 -0.1264,0.9599 -0.1114,0.9591 -0.0962,0.9574 -0.0811,0.9549 -0.0661,0.9514 -0.0513,0.9469 -0.037,0.9412 -0.0234,0.9345 -0.0109,0.9266 0,0.9177" fill="none" id="repeat_m1--backbone" data-instance-id="repeat_m1--backbone" data-repeat-id="repeat_m1" data-repeat-shift="-1" stroke="#0000ff" stroke-width="0.007" stroke-linejoin="round" stroke-linecap="round"/></g><g id="backbone--repeat_0" data-instance-id="backbone--repeat_0" data-repeat-id="repeat_0" data-repeat-shift="0"><polyline points="0,0.9177 0.012,0.9102 0.0239,0.9029 0.0359,0.8957 0.0479,0.8886 0.0598,0.8816 0.0718,0.8747 0.0838,0.8679 0.0957,0.8611 0.1077,0.8544 0.1197,0.8476 0.1316,0.8409 0.1436,0.8341 0.1556,0.8272 0.1675,0.8202 0.1795,0.8131 0.1915,0.8057 0.2034,0.7981 0.2154,0.7903 0.2274,0.7821 0.2389,0.7735 0.2492,0.7639 0.2602,0.7524 0.2717,0.741 0.2837,0.7297 0.2963,0.7185 0.3093,0.7079 0.3227,0.698 0.3366,0.6893 0.3508,0.6822 0.3654,0.6772 0.3802,0.6746 0.3953,0.6746 0.4104,0.6773 0.4255,0.6825 0.4405,0.6898 0.4553,0.6987 0.4697,0.7087 0.4838,0.7199 0.4975,0.7312 0.5108,0.7436 0.5235,0.7576 0.5359,0.7703 0.5479,0.7821 0.5568,0.7932 0.5658,0.8037 0.5749,0.8137 0.5842,0.8234 0.5935,0.8327 0.6031,0.8419 0.6127,0.8509 0.6225,0.8599 0.6325,0.8687 0.6426,0.8774 0.6529,0.886 0.6634,0.8943 0.6741,0.9024 0.685,0.91 0.6962,0.917 0.7077,0.9232 0.7196,0.9289 0.7319,0.9342 0.7447,0.9391 0.7579,0.9435 0.7717,0.9475 0.7857,0.951 0.7999,0.9539 0.8143,0.9564 0.8289,0.9582 0.8437,0.9595 0.8585,0.96 0.8736,0.9599 0.8886,0.9591 0.9038,0.9574 0.9189,0.9549 0.9339,0.9514 0.9487,0.9469 0.963,0.9412 0.9766,0.9345 0.9891,0.9266 1,0.9177" fill="none" id="repeat_0--backbone" data-instance-id="repeat_0--backbone" data-repeat-id="repeat_0" data-repeat-shift="0" stroke="#0000ff" stroke-width="0.014" stroke-linejoin="round" stroke-linecap="round"/></g><g id="backbone--repeat_p1" data-instance-id="backbone--repeat_p1" data-repeat-id="repeat_p1" data-repeat-shift="1"><polyline points="1,0.9177 1.012,0.9102 1.0239,0.9029 1.0359,0.8957 1.0479,0.8886 1.0598,0.8816 1.0718,0.8747 1.0838,0.8679 1.0957,0.8611 1.1077,0.8544 1.1197,0.8476 1.1316,0.8409 1.1436,0.8341 1.1556,0.8272 1.1675,0.8202 1.1795,0.8131 1.1915,0.8057 1.2034,0.7981 1.2154,0.7903 1.2274,0.7821 1.2389,0.7735 1.2492,0.7639 1.2602,0.7524 1.2717,0.741 1.2837,0.7297 1.2963,0.7185 1.3093,0.7079 1.3227,0.698 1.3366,0.6893 1.3508,0.6822 1.3654,0.6772 1.3802,0.6746 1.3953,0.6746 1.4104,0.6773 1.4255,0.6825 1.4405,0.6898 1.4553,0.6987 1.4697,0.7087 1.4838,0.7199 1.4975,0.7312 1.5108,0.7436 1.5235,0.7576 1.5359,0.7703 1.5479,0.7821 1.5568,0.7932 1.5658,0.8037 1.5749,0.8137 1.5842,0.8234 1.5935,0.8327 1.6031,0.8419 1.6127,0.8509 1.6225,0.8599 1.6325,0.8687 1.6426,0.8774 1.6529,0.886 1.6634,0.8943 1.6741,0.9024 1.685,0.91 1.6962,0.917 1.7077,0.9232 1.7196,0.9289 1.7319,0.9342 1.7447,0.9391 1.7579,0.9435 1.7717,0.9475 1.7857,0.951 1.7999,0.9539 1.8143,0.9564 1.8289,0.9582 1.8437,0.9595 1.8585,0.96 1.8736,0.9599 1.8886,0.9591 1.9038,0.9574 1.9189,0.9549 1.9339,0.9514 1.9487,0.9469 1.963,0.9412 1.9766,0.9345 1.9891,0.9266 2,0.9177" fill="none" id="repeat_p1--backbone" data-instance-id="repeat_p1--backbone" data-repeat-id="repeat_p1" data-repeat-shift="1" stroke="#0000ff" stroke-width="0.007" stroke-linejoin="round" stroke-linecap="round"/></g></g><g id="flower-support-layer" data-instance-id="flower-support-layer" data-role="flower_support"><g id="flower-support--repeat_m1" data-instance-id="flower-support--repeat_m1" data-repeat-id="repeat_m1" data-repeat-shift="-1"><polyline points="-1.037,0.9412 -1.0269,0.9361 -1.0176,0.9302 -1.009,0.9235 -1.001,0.9159 -0.9938,0.9077 -0.9872,0.8988 -0.9811,0.8893 -0.9756,0.8791 -0.9707,0.8685 -0.9662,0.8573 -0.9623,0.8457 -0.9587,0.8337 -0.9556,0.8213 -0.9528,0.8086 -0.9504,0.7956 -0.9483,0.7824 -0.9465,0.769 -0.9449,0.7554 -0.9435,0.7418 -0.9423,0.7281 -0.9412,0.7144 -0.9403,0.7007 -0.9395,0.6871 -0.9387,0.6736 -0.9379,0.6603 -0.9372,0.6472 -0.9364,0.6344 -0.9355,0.6218 -0.9345,0.6096 -0.9334,0.5978 -0.9321,0.5865 -0.9306,0.5756 -0.9289,0.5652 -0.9269,0.5554 -0.9247,0.5462 -0.9221,0.5376 -0.9191,0.5298 -0.9158,0.5226 -0.912,0.5163 -0.9078,0.5108 -0.906,0.5089 -0.9042,0.5069 -0.9022,0.505 -0.9003,0.5031 -0.8982,0.5011 -0.8961,0.4992 -0.894,0.4973 -0.8918,0.4955 -0.8896,0.4936 -0.8874,0.4917 -0.8851,0.4898 -0.8829,0.488 -0.8806,0.4861 -0.8783,0.4843 -0.8761,0.4824 -0.8738,0.4805 -0.8716,0.4787 -0.8694,0.4768 -0.8672,0.475 -0.8651,0.4731 -0.863,0.4712 -0.8609,0.4694 -0.8589,0.4675 -0.857,0.4656 -0.8552,0.4637 -0.8534,0.4618 -0.8517,0.4599 -0.85,0.4579 -0.8485,0.456 -0.8471,0.454 -0.8458,0.452 -0.8446,0.4501 -0.8435,0.4481 -0.8425,0.446 -0.8417,0.444 -0.841,0.4419 -0.8405,0.4398 -0.84,0.4377 -0.8398,0.4356 -0.8397,0.4335" fill="none" id="repeat_m1--flower-support--proto_sw_3_2__flower_1__flower_support" data-instance-id="repeat_m1--flower-support--proto_sw_3_2__flower_1__flower_support" data-repeat-id="repeat_m1" data-repeat-shift="-1" data-mount-id="proto_sw_3_2__flower_1__flower_support" stroke="#007800" stroke-width="0.010" stroke-linejoin="round" stroke-linecap="round" data-flower-id="flower_1"/><polyline points="-0.1264,0.9599 -0.1333,0.9597 -0.1395,0.9586 -0.145,0.9566 -0.1498,0.9539 -0.1539,0.9504 -0.1575,0.9462 -0.1605,0.9413 -0.163,0.9357 -0.1649,0.9296 -0.1664,0.9229 -0.1675,0.9157 -0.1682,0.9081 -0.1685,0.9 -0.1684,0.8916 -0.1681,0.8828 -0.1675,0.8737 -0.1666,0.8644 -0.1655,0.8548 -0.1643,0.8451 -0.1629,0.8353 -0.1614,0.8253 -0.1598,0.8154 -0.1582,0.8054 -0.1566,0.7955 -0.1549,0.7856 -0.1534,0.7759 -0.1519,0.7663 -0.1505,0.757 -0.1493,0.7479 -0.1483,0.7391 -0.1475,0.7306 -0.1469,0.7225 -0.1466,0.7149 -0.1467,0.7076 -0.147,0.7009 -0.1478,0.6948 -0.149,0.6892 -0.1506,0.6843 -0.1526,0.68 -0.1552,0.6764 -0.1571,0.6745 -0.159,0.6725 -0.161,0.6705 -0.163,0.6686 -0.1651,0.6666 -0.1673,0.6647 -0.1695,0.6628 -0.1717,0.6609 -0.174,0.659 -0.1763,0.6571 -0.1786,0.6552 -0.181,0.6533 -0.1833,0.6514 -0.1857,0.6495 -0.188,0.6476 -0.1903,0.6458 -0.1926,0.6439 -0.1949,0.642 -0.1972,0.6401 -0.1994,0.6382 -0.2015,0.6363 -0.2037,0.6344 -0.2057,0.6325 -0.2077,0.6306 -0.2096,0.6287 -0.2115,0.6268 -0.2132,0.6248 -0.2149,0.6229 -0.2165,0.6209 -0.2179,0.6189 -0.2193,0.6169 -0.2206,0.6149 -0.2217,0.6128 -0.2227,0.6108 -0.2235,0.6087 -0.2243,0.6066 -0.2248,0.6044 -0.2252,0.6023 -0.2255,0.6001 -0.2256,0.5979" fill="none" id="repeat_m1--flower-support--proto_sw_3_2__flower_2__flower_support" data-instance-id="repeat_m1--flower-support--proto_sw_3_2__flower_2__flower_support" data-repeat-id="repeat_m1" data-repeat-shift="-1" data-mount-id="proto_sw_3_2__flower_2__flower_support" stroke="#007800" stroke-width="0.010" stroke-linejoin="round" stroke-linecap="round" data-flower-id="flower_2"/></g><g id="flower-support--repeat_0" data-instance-id="flower-support--repeat_0" data-repeat-id="repeat_0" data-repeat-shift="0"><polyline points="-0.037,0.9412 -0.0269,0.9361 -0.0176,0.9302 -0.009,0.9235 -0.001,0.9159 0.0062,0.9077 0.0128,0.8988 0.0189,0.8893 0.0244,0.8791 0.0293,0.8685 0.0338,0.8573 0.0377,0.8457 0.0413,0.8337 0.0444,0.8213 0.0472,0.8086 0.0496,0.7956 0.0517,0.7824 0.0535,0.769 0.0551,0.7554 0.0565,0.7418 0.0577,0.7281 0.0588,0.7144 0.0597,0.7007 0.0605,0.6871 0.0613,0.6736 0.0621,0.6603 0.0628,0.6472 0.0636,0.6344 0.0645,0.6218 0.0655,0.6096 0.0666,0.5978 0.0679,0.5865 0.0694,0.5756 0.0711,0.5652 0.0731,0.5554 0.0753,0.5462 0.0779,0.5376 0.0809,0.5298 0.0842,0.5226 0.088,0.5163 0.0922,0.5108 0.094,0.5089 0.0958,0.5069 0.0978,0.505 0.0997,0.5031 0.1018,0.5011 0.1039,0.4992 0.106,0.4973 0.1082,0.4955 0.1104,0.4936 0.1126,0.4917 0.1149,0.4898 0.1171,0.488 0.1194,0.4861 0.1217,0.4843 0.1239,0.4824 0.1262,0.4805 0.1284,0.4787 0.1306,0.4768 0.1328,0.475 0.1349,0.4731 0.137,0.4712 0.1391,0.4694 0.1411,0.4675 0.143,0.4656 0.1448,0.4637 0.1466,0.4618 0.1483,0.4599 0.15,0.4579 0.1515,0.456 0.1529,0.454 0.1542,0.452 0.1554,0.4501 0.1565,0.4481 0.1575,0.446 0.1583,0.444 0.159,0.4419 0.1595,0.4398 0.16,0.4377 0.1602,0.4356 0.1603,0.4335" fill="none" id="repeat_0--flower-support--proto_sw_3_2__flower_1__flower_support" data-instance-id="repeat_0--flower-support--proto_sw_3_2__flower_1__flower_support" data-repeat-id="repeat_0" data-repeat-shift="0" data-mount-id="proto_sw_3_2__flower_1__flower_support" stroke="#007800" stroke-width="0.010" stroke-linejoin="round" stroke-linecap="round" data-flower-id="flower_1"/><polyline points="0.8736,0.9599 0.8667,0.9597 0.8605,0.9586 0.855,0.9566 0.8502,0.9539 0.8461,0.9504 0.8425,0.9462 0.8395,0.9413 0.837,0.9357 0.8351,0.9296 0.8336,0.9229 0.8325,0.9157 0.8318,0.9081 0.8315,0.9 0.8316,0.8916 0.8319,0.8828 0.8325,0.8737 0.8334,0.8644 0.8345,0.8548 0.8357,0.8451 0.8371,0.8353 0.8386,0.8253 0.8402,0.8154 0.8418,0.8054 0.8434,0.7955 0.8451,0.7856 0.8466,0.7759 0.8481,0.7663 0.8495,0.757 0.8507,0.7479 0.8517,0.7391 0.8525,0.7306 0.8531,0.7225 0.8534,0.7149 0.8533,0.7076 0.853,0.7009 0.8522,0.6948 0.851,0.6892 0.8494,0.6843 0.8474,0.68 0.8448,0.6764 0.8429,0.6745 0.841,0.6725 0.839,0.6705 0.837,0.6686 0.8349,0.6666 0.8327,0.6647 0.8305,0.6628 0.8283,0.6609 0.826,0.659 0.8237,0.6571 0.8214,0.6552 0.819,0.6533 0.8167,0.6514 0.8143,0.6495 0.812,0.6476 0.8097,0.6458 0.8074,0.6439 0.8051,0.642 0.8028,0.6401 0.8006,0.6382 0.7985,0.6363 0.7963,0.6344 0.7943,0.6325 0.7923,0.6306 0.7904,0.6287 0.7885,0.6268 0.7868,0.6248 0.7851,0.6229 0.7835,0.6209 0.7821,0.6189 0.7807,0.6169 0.7794,0.6149 0.7783,0.6128 0.7773,0.6108 0.7765,0.6087 0.7757,0.6066 0.7752,0.6044 0.7748,0.6023 0.7745,0.6001 0.7744,0.5979" fill="none" id="repeat_0--flower-support--proto_sw_3_2__flower_2__flower_support" data-instance-id="repeat_0--flower-support--proto_sw_3_2__flower_2__flower_support" data-repeat-id="repeat_0" data-repeat-shift="0" data-mount-id="proto_sw_3_2__flower_2__flower_support" stroke="#007800" stroke-width="0.010" stroke-linejoin="round" stroke-linecap="round" data-flower-id="flower_2"/></g><g id="flower-support--repeat_p1" data-instance-id="flower-support--repeat_p1" data-repeat-id="repeat_p1" data-repeat-shift="1"><polyline points="0.963,0.9412 0.9731,0.9361 0.9824,0.9302 0.991,0.9235 0.999,0.9159 1.0062,0.9077 1.0128,0.8988 1.0189,0.8893 1.0244,0.8791 1.0293,0.8685 1.0338,0.8573 1.0377,0.8457 1.0413,0.8337 1.0444,0.8213 1.0472,0.8086 1.0496,0.7956 1.0517,0.7824 1.0535,0.769 1.0551,0.7554 1.0565,0.7418 1.0577,0.7281 1.0588,0.7144 1.0597,0.7007 1.0605,0.6871 1.0613,0.6736 1.0621,0.6603 1.0628,0.6472 1.0636,0.6344 1.0645,0.6218 1.0655,0.6096 1.0666,0.5978 1.0679,0.5865 1.0694,0.5756 1.0711,0.5652 1.0731,0.5554 1.0753,0.5462 1.0779,0.5376 1.0809,0.5298 1.0842,0.5226 1.088,0.5163 1.0922,0.5108 1.094,0.5089 1.0958,0.5069 1.0978,0.505 1.0997,0.5031 1.1018,0.5011 1.1039,0.4992 1.106,0.4973 1.1082,0.4955 1.1104,0.4936 1.1126,0.4917 1.1149,0.4898 1.1171,0.488 1.1194,0.4861 1.1217,0.4843 1.1239,0.4824 1.1262,0.4805 1.1284,0.4787 1.1306,0.4768 1.1328,0.475 1.1349,0.4731 1.137,0.4712 1.1391,0.4694 1.1411,0.4675 1.143,0.4656 1.1448,0.4637 1.1466,0.4618 1.1483,0.4599 1.15,0.4579 1.1515,0.456 1.1529,0.454 1.1542,0.452 1.1554,0.4501 1.1565,0.4481 1.1575,0.446 1.1583,0.444 1.159,0.4419 1.1595,0.4398 1.16,0.4377 1.1602,0.4356 1.1603,0.4335" fill="none" id="repeat_p1--flower-support--proto_sw_3_2__flower_1__flower_support" data-instance-id="repeat_p1--flower-support--proto_sw_3_2__flower_1__flower_support" data-repeat-id="repeat_p1" data-repeat-shift="1" data-mount-id="proto_sw_3_2__flower_1__flower_support" stroke="#007800" stroke-width="0.010" stroke-linejoin="round" stroke-linecap="round" data-flower-id="flower_1"/><polyline points="1.8736,0.9599 1.8667,0.9597 1.8605,0.9586 1.855,0.9566 1.8502,0.9539 1.8461,0.9504 1.8425,0.9462 1.8395,0.9413 1.837,0.9357 1.8351,0.9296 1.8336,0.9229 1.8325,0.9157 1.8318,0.9081 1.8315,0.9 1.8316,0.8916 1.8319,0.8828 1.8325,0.8737 1.8334,0.8644 1.8345,0.8548 1.8357,0.8451 1.8371,0.8353 1.8386,0.8253 1.8402,0.8154 1.8418,0.8054 1.8434,0.7955 1.8451,0.7856 1.8466,0.7759 1.8481,0.7663 1.8495,0.757 1.8507,0.7479 1.8517,0.7391 1.8525,0.7306 1.8531,0.7225 1.8534,0.7149 1.8533,0.7076 1.853,0.7009 1.8522,0.6948 1.851,0.6892 1.8494,0.6843 1.8474,0.68 1.8448,0.6764 1.8429,0.6745 1.841,0.6725 1.839,0.6705 1.837,0.6686 1.8349,0.6666 1.8327,0.6647 1.8305,0.6628 1.8283,0.6609 1.826,0.659 1.8237,0.6571 1.8214,0.6552 1.819,0.6533 1.8167,0.6514 1.8143,0.6495 1.812,0.6476 1.8097,0.6458 1.8074,0.6439 1.8051,0.642 1.8028,0.6401 1.8006,0.6382 1.7985,0.6363 1.7963,0.6344 1.7943,0.6325 1.7923,0.6306 1.7904,0.6287 1.7885,0.6268 1.7868,0.6248 1.7851,0.6229 1.7835,0.6209 1.7821,0.6189 1.7807,0.6169 1.7794,0.6149 1.7783,0.6128 1.7773,0.6108 1.7765,0.6087 1.7757,0.6066 1.7752,0.6044 1.7748,0.6023 1.7745,0.6001 1.7744,0.5979" fill="none" id="repeat_p1--flower-support--proto_sw_3_2__flower_2__flower_support" data-instance-id="repeat_p1--flower-support--proto_sw_3_2__flower_2__flower_support" data-repeat-id="repeat_p1" data-repeat-shift="1" data-mount-id="proto_sw_3_2__flower_2__flower_support" stroke="#007800" stroke-width="0.010" stroke-linejoin="round" stroke-linecap="round" data-flower-id="flower_2"/></g></g><g id="flower-anchor-layer" data-instance-id="flower-anchor-layer" data-role="flower_anchor"><g id="flower-anchor--repeat_m1" data-instance-id="flower-anchor--repeat_m1" data-repeat-id="repeat_m1" data-repeat-shift="-1"><ellipse id="repeat_m1--flower-anchor--flower_1" data-instance-id="repeat_m1--flower-anchor--flower_1" data-repeat-id="repeat_m1" data-repeat-shift="-1" cx="-0.8397" cy="0.247" rx="0.1737" ry="0.1865" fill="#fff7fb" stroke="#ff0000" stroke-width="0.006" data-flower-id="flower_1"/><ellipse id="repeat_m1--flower-anchor--flower_2" data-instance-id="repeat_m1--flower-anchor--flower_2" data-repeat-id="repeat_m1" data-repeat-shift="-1" cx="-0.2256" cy="0.4018" rx="0.1795" ry="0.1961" fill="#fff7fb" stroke="#ff0000" stroke-width="0.006" data-flower-id="flower_2"/></g><g id="flower-anchor--repeat_0" data-instance-id="flower-anchor--repeat_0" data-repeat-id="repeat_0" data-repeat-shift="0"><ellipse id="repeat_0--flower-anchor--flower_1" data-instance-id="repeat_0--flower-anchor--flower_1" data-repeat-id="repeat_0" data-repeat-shift="0" cx="0.1603" cy="0.247" rx="0.1737" ry="0.1865" fill="#fff7fb" stroke="#ff0000" stroke-width="0.006" data-flower-id="flower_1"/><ellipse id="repeat_0--flower-anchor--flower_2" data-instance-id="repeat_0--flower-anchor--flower_2" data-repeat-id="repeat_0" data-repeat-shift="0" cx="0.7744" cy="0.4018" rx="0.1795" ry="0.1961" fill="#fff7fb" stroke="#ff0000" stroke-width="0.006" data-flower-id="flower_2"/></g><g id="flower-anchor--repeat_p1" data-instance-id="flower-anchor--repeat_p1" data-repeat-id="repeat_p1" data-repeat-shift="1"><ellipse id="repeat_p1--flower-anchor--flower_1" data-instance-id="repeat_p1--flower-anchor--flower_1" data-repeat-id="repeat_p1" data-repeat-shift="1" cx="1.1603" cy="0.247" rx="0.1737" ry="0.1865" fill="#fff7fb" stroke="#ff0000" stroke-width="0.006" data-flower-id="flower_1"/><ellipse id="repeat_p1--flower-anchor--flower_2" data-instance-id="repeat_p1--flower-anchor--flower_2" data-repeat-id="repeat_p1" data-repeat-shift="1" cx="1.7744" cy="0.4018" rx="0.1795" ry="0.1961" fill="#fff7fb" stroke="#ff0000" stroke-width="0.006" data-flower-id="flower_2"/></g></g><g id="branches-layer" data-instance-id="branches-layer" data-role="branches"><g id="branches--repeat_m1" data-instance-id="branches--repeat_m1" data-repeat-id="repeat_m1" data-repeat-shift="-1"><path id="repeat_m1--curve--proto_sw_3_2__seed_693261803__global_l1_flow_v3__density_medium__selected_l1_006.L1" data-instance-id="repeat_m1--curve--proto_sw_3_2__seed_693261803__global_l1_flow_v3__density_medium__selected_l1_006.L1" data-repeat-id="repeat_m1" data-repeat-shift="-1" d="M -0.2455,0.9424 C -0.0506,1.0446 -0.2169,1.1706 -0.423,1.1122" fill="none" stroke="#ff9900" stroke-width="0.01" stroke-linejoin="round" stroke-linecap="round" data-role="primary_branch" data-level="L1" data-curve-id="proto_sw_3_2__seed_693261803__global_l1_flow_v3__density_medium__selected_l1_006.L1" data-parent-curve-id="None" data-lane-id="selected_l1_006" data-unit-id="proto_sw_3_2__seed_693261803__global_l1_flow_v3__density_medium__selected_l1_006__L1-Only__independent_l1__context_preferred__sample_0125"/><path id="repeat_m1--curve--proto_sw_3_2__seed_693261803__global_l1_flow_v3__density_medium__selected_l1_005.L1" data-instance-id="repeat_m1--curve--proto_sw_3_2__seed_693261803__global_l1_flow_v3__density_medium__selected_l1_005.L1" data-repeat-id="repeat_m1" data-repeat-shift="-1" d="M -0.3812,0.8565 C -0.5118,0.7622 -0.5549,0.896 -0.6189,0.7947" fill="none" stroke="#ff9900" stroke-width="0.01" stroke-linejoin="round" stroke-linecap="round" data-role="primary_branch" data-level="L1" data-curve-id="proto_sw_3_2__seed_693261803__global_l1_flow_v3__density_medium__selected_l1_005.L1" data-parent-curve-id="None" data-lane-id="selected_l1_005" data-unit-id="proto_sw_3_2__seed_693261803__global_l1_flow_v3__density_medium__selected_l1_005__Y-C__compact_c__context_preferred__sample_0101"/><path id="repeat_m1--curve--proto_sw_3_2__seed_693261803__global_l1_flow_v3__density_medium__selected_l1_005.L2.1" data-instance-id="repeat_m1--curve--proto_sw_3_2__seed_693261803__global_l1_flow_v3__density_medium__selected_l1_005.L2.1" data-repeat-id="repeat_m1" data-repeat-shift="-1" d="M -0.4522,0.8232 C -0.4903,0.851 -0.5153,0.8657 -0.5623,0.8701" fill="none" stroke="#00ffff" stroke-width="0.007" stroke-linejoin="round" stroke-linecap="round" data-role="secondary_branch" data-level="L2" data-curve-id="proto_sw_3_2__seed_693261803__global_l1_flow_v3__density_medium__selected_l1_005.L2.1" data-parent-curve-id="proto_sw_3_2__seed_693261803__global_l1_flow_v3__density_medium__selected_l1_005.L1" data-lane-id="selected_l1_005" data-unit-id="proto_sw_3_2__seed_693261803__global_l1_flow_v3__density_medium__selected_l1_005__Y-C__compact_c__context_preferred__sample_0101"/><path id="repeat_m1--curve--proto_sw_3_2__seed_693261803__global_l1_flow_v3__density_medium__selected_l1_002.L1" data-instance-id="repeat_m1--curve--proto_sw_3_2__seed_693261803__global_l1_flow_v3__density_medium__selected_l1_002.L1" data-repeat-id="repeat_m1" data-repeat-shift="-1" d="M -0.8004,0.8006 C -0.6446,0.8003 -0.6917,0.7278 -0.5785,0.6952" fill="none" stroke="#ff9900" stroke-width="0.01" stroke-linejoin="round" stroke-linecap="round" data-role="primary_branch" data-level="L1" data-curve-id="proto_sw_3_2__seed_693261803__global_l1_flow_v3__density_medium__selected_l1_002.L1" data-parent-curve-id="None" data-lane-id="selected_l1_002" data-unit-id="proto_sw_3_2__seed_693261803__global_l1_flow_v3__density_medium__selected_l1_002__L1-Only__independent_l1__context_preferred__sample_0025"/><path id="repeat_m1--curve--proto_sw_3_2__seed_693261803__global_l1_flow_v3__density_medium__selected_l1_003.L1" data-instance-id="repeat_m1--curve--proto_sw_3_2__seed_693261803__global_l1_flow_v3__density_medium__selected_l1_003.L1" data-repeat-id="repeat_m1" data-repeat-shift="-1" d="M -0.652,0.6837 C -0.6084,0.6543 -0.7098,0.6068 -0.68,0.5744" fill="none" stroke="#ff9900" stroke-width="0.01" stroke-linejoin="round" stroke-linecap="round" data-role="primary_branch" data-level="L1" data-curve-id="proto_sw_3_2__seed_693261803__global_l1_flow_v3__density_medium__selected_l1_003.L1" data-parent-curve-id="None" data-lane-id="selected_l1_003" data-unit-id="proto_sw_3_2__seed_693261803__global_l1_flow_v3__density_medium__selected_l1_003__L1-Only__independent_l1__context_preferred__sample_0050"/><path id="repeat_m1--curve--proto_sw_3_2__seed_693261803__global_l1_flow_v3__density_medium__selected_l1_001.L1" data-instance-id="repeat_m1--curve--proto_sw_3_2__seed_693261803__global_l1_flow_v3__density_medium__selected_l1_001.L1" data-repeat-id="repeat_m1" data-repeat-shift="-1" d="M -0.8874,0.8516 C -0.8235,0.7579 -0.8799,0.7119 -0.8737,0.6064" fill="none" stroke="#ff9900" stroke-width="0.01" stroke-linejoin="round" stroke-linecap="round" data-role="primary_branch" data-level="L1" data-curve-id="proto_sw_3_2__seed_693261803__global_l1_flow_v3__density_medium__selected_l1_001.L1" data-parent-curve-id="None" data-lane-id="selected_l1_001" data-unit-id="proto_sw_3_2__seed_693261803__global_l1_flow_v3__density_medium__selected_l1_001__L1-Only__independent_l1__context_preferred__sample_0000"/><path id="repeat_m1--curve--proto_sw_3_2__seed_693261803__global_l1_flow_v3__density_medium__selected_l1_004.L1" data-instance-id="repeat_m1--curve--proto_sw_3_2__seed_693261803__global_l1_flow_v3__density_medium__selected_l1_004.L1" data-repeat-id="repeat_m1" data-repeat-shift="-1" d="M -0.5437,0.6994 C -0.4301,0.757 -0.337,0.6931 -0.3137,0.7858" fill="none" stroke="#ff9900" stroke-width="0.01" stroke-linejoin="round" stroke-linecap="round" data-role="primary_branch" data-level="L1" data-curve-id="proto_sw_3_2__seed_693261803__global_l1_flow_v3__density_medium__selected_l1_004.L1" data-parent-curve-id="None" data-lane-id="selected_l1_004" data-unit-id="proto_sw_3_2__seed_693261803__global_l1_flow_v3__density_medium__selected_l1_004__L1-Only__independent_l1__context_preferred__sample_0075"/></g><g id="branches--repeat_0" data-instance-id="branches--repeat_0" data-repeat-id="repeat_0" data-repeat-shift="0"><path id="repeat_0--curve--proto_sw_3_2__seed_693261803__global_l1_flow_v3__density_medium__selected_l1_006.L1" data-instance-id="repeat_0--curve--proto_sw_3_2__seed_693261803__global_l1_flow_v3__density_medium__selected_l1_006.L1" data-repeat-id="repeat_0" data-repeat-shift="0" d="M 0.7545,0.9424 C 0.9494,1.0446 0.7831,1.1706 0.577,1.1122" fill="none" stroke="#ff9900" stroke-width="0.01" stroke-linejoin="round" stroke-linecap="round" data-role="primary_branch" data-level="L1" data-curve-id="proto_sw_3_2__seed_693261803__global_l1_flow_v3__density_medium__selected_l1_006.L1" data-parent-curve-id="None" data-lane-id="selected_l1_006" data-unit-id="proto_sw_3_2__seed_693261803__global_l1_flow_v3__density_medium__selected_l1_006__L1-Only__independent_l1__context_preferred__sample_0125"/><path id="repeat_0--curve--proto_sw_3_2__seed_693261803__global_l1_flow_v3__density_medium__selected_l1_005.L1" data-instance-id="repeat_0--curve--proto_sw_3_2__seed_693261803__global_l1_flow_v3__density_medium__selected_l1_005.L1" data-repeat-id="repeat_0" data-repeat-shift="0" d="M 0.6188,0.8565 C 0.4882,0.7622 0.4451,0.896 0.3811,0.7947" fill="none" stroke="#ff9900" stroke-width="0.01" stroke-linejoin="round" stroke-linecap="round" data-role="primary_branch" data-level="L1" data-curve-id="proto_sw_3_2__seed_693261803__global_l1_flow_v3__density_medium__selected_l1_005.L1" data-parent-curve-id="None" data-lane-id="selected_l1_005" data-unit-id="proto_sw_3_2__seed_693261803__global_l1_flow_v3__density_medium__selected_l1_005__Y-C__compact_c__context_preferred__sample_0101"/><path id="repeat_0--curve--proto_sw_3_2__seed_693261803__global_l1_flow_v3__density_medium__selected_l1_005.L2.1" data-instance-id="repeat_0--curve--proto_sw_3_2__seed_693261803__global_l1_flow_v3__density_medium__selected_l1_005.L2.1" data-repeat-id="repeat_0" data-repeat-shift="0" d="M 0.5478,0.8232 C 0.5097,0.851 0.4847,0.8657 0.4377,0.8701" fill="none" stroke="#00ffff" stroke-width="0.007" stroke-linejoin="round" stroke-linecap="round" data-role="secondary_branch" data-level="L2" data-curve-id="proto_sw_3_2__seed_693261803__global_l1_flow_v3__density_medium__selected_l1_005.L2.1" data-parent-curve-id="proto_sw_3_2__seed_693261803__global_l1_flow_v3__density_medium__selected_l1_005.L1" data-lane-id="selected_l1_005" data-unit-id="proto_sw_3_2__seed_693261803__global_l1_flow_v3__density_medium__selected_l1_005__Y-C__compact_c__context_preferred__sample_0101"/><path id="repeat_0--curve--proto_sw_3_2__seed_693261803__global_l1_flow_v3__density_medium__selected_l1_002.L1" data-instance-id="repeat_0--curve--proto_sw_3_2__seed_693261803__global_l1_flow_v3__density_medium__selected_l1_002.L1" data-repeat-id="repeat_0" data-repeat-shift="0" d="M 0.1996,0.8006 C 0.3554,0.8003 0.3083,0.7278 0.4215,0.6952" fill="none" stroke="#ff9900" stroke-width="0.01" stroke-linejoin="round" stroke-linecap="round" data-role="primary_branch" data-level="L1" data-curve-id="proto_sw_3_2__seed_693261803__global_l1_flow_v3__density_medium__selected_l1_002.L1" data-parent-curve-id="None" data-lane-id="selected_l1_002" data-unit-id="proto_sw_3_2__seed_693261803__global_l1_flow_v3__density_medium__selected_l1_002__L1-Only__independent_l1__context_preferred__sample_0025"/><path id="repeat_0--curve--proto_sw_3_2__seed_693261803__global_l1_flow_v3__density_medium__selected_l1_003.L1" data-instance-id="repeat_0--curve--proto_sw_3_2__seed_693261803__global_l1_flow_v3__density_medium__selected_l1_003.L1" data-repeat-id="repeat_0" data-repeat-shift="0" d="M 0.348,0.6837 C 0.3916,0.6543 0.2902,0.6068 0.32,0.5744" fill="none" stroke="#ff9900" stroke-width="0.01" stroke-linejoin="round" stroke-linecap="round" data-role="primary_branch" data-level="L1" data-curve-id="proto_sw_3_2__seed_693261803__global_l1_flow_v3__density_medium__selected_l1_003.L1" data-parent-curve-id="None" data-lane-id="selected_l1_003" data-unit-id="proto_sw_3_2__seed_693261803__global_l1_flow_v3__density_medium__selected_l1_003__L1-Only__independent_l1__context_preferred__sample_0050"/><path id="repeat_0--curve--proto_sw_3_2__seed_693261803__global_l1_flow_v3__density_medium__selected_l1_001.L1" data-instance-id="repeat_0--curve--proto_sw_3_2__seed_693261803__global_l1_flow_v3__density_medium__selected_l1_001.L1" data-repeat-id="repeat_0" data-repeat-shift="0" d="M 0.1126,0.8516 C 0.1765,0.7579 0.1201,0.7119 0.1263,0.6064" fill="none" stroke="#ff9900" stroke-width="0.01" stroke-linejoin="round" stroke-linecap="round" data-role="primary_branch" data-level="L1" data-curve-id="proto_sw_3_2__seed_693261803__global_l1_flow_v3__density_medium__selected_l1_001.L1" data-parent-curve-id="None" data-lane-id="selected_l1_001" data-unit-id="proto_sw_3_2__seed_693261803__global_l1_flow_v3__density_medium__selected_l1_001__L1-Only__independent_l1__context_preferred__sample_0000"/><path id="repeat_0--curve--proto_sw_3_2__seed_693261803__global_l1_flow_v3__density_medium__selected_l1_004.L1" data-instance-id="repeat_0--curve--proto_sw_3_2__seed_693261803__global_l1_flow_v3__density_medium__selected_l1_004.L1" data-repeat-id="repeat_0" data-repeat-shift="0" d="M 0.4563,0.6994 C 0.5699,0.757 0.663,0.6931 0.6863,0.7858" fill="none" stroke="#ff9900" stroke-width="0.01" stroke-linejoin="round" stroke-linecap="round" data-role="primary_branch" data-level="L1" data-curve-id="proto_sw_3_2__seed_693261803__global_l1_flow_v3__density_medium__selected_l1_004.L1" data-parent-curve-id="None" data-lane-id="selected_l1_004" data-unit-id="proto_sw_3_2__seed_693261803__global_l1_flow_v3__density_medium__selected_l1_004__L1-Only__independent_l1__context_preferred__sample_0075"/></g><g id="branches--repeat_p1" data-instance-id="branches--repeat_p1" data-repeat-id="repeat_p1" data-repeat-shift="1"><path id="repeat_p1--curve--proto_sw_3_2__seed_693261803__global_l1_flow_v3__density_medium__selected_l1_006.L1" data-instance-id="repeat_p1--curve--proto_sw_3_2__seed_693261803__global_l1_flow_v3__density_medium__selected_l1_006.L1" data-repeat-id="repeat_p1" data-repeat-shift="1" d="M 1.7545,0.9424 C 1.9494,1.0446 1.7831,1.1706 1.577,1.1122" fill="none" stroke="#ff9900" stroke-width="0.01" stroke-linejoin="round" stroke-linecap="round" data-role="primary_branch" data-level="L1" data-curve-id="proto_sw_3_2__seed_693261803__global_l1_flow_v3__density_medium__selected_l1_006.L1" data-parent-curve-id="None" data-lane-id="selected_l1_006" data-unit-id="proto_sw_3_2__seed_693261803__global_l1_flow_v3__density_medium__selected_l1_006__L1-Only__independent_l1__context_preferred__sample_0125"/><path id="repeat_p1--curve--proto_sw_3_2__seed_693261803__global_l1_flow_v3__density_medium__selected_l1_005.L1" data-instance-id="repeat_p1--curve--proto_sw_3_2__seed_693261803__global_l1_flow_v3__density_medium__selected_l1_005.L1" data-repeat-id="repeat_p1" data-repeat-shift="1" d="M 1.6188,0.8565 C 1.4882,0.7622 1.4451,0.896 1.3811,0.7947" fill="none" stroke="#ff9900" stroke-width="0.01" stroke-linejoin="round" stroke-linecap="round" data-role="primary_branch" data-level="L1" data-curve-id="proto_sw_3_2__seed_693261803__global_l1_flow_v3__density_medium__selected_l1_005.L1" data-parent-curve-id="None" data-lane-id="selected_l1_005" data-unit-id="proto_sw_3_2__seed_693261803__global_l1_flow_v3__density_medium__selected_l1_005__Y-C__compact_c__context_preferred__sample_0101"/><path id="repeat_p1--curve--proto_sw_3_2__seed_693261803__global_l1_flow_v3__density_medium__selected_l1_005.L2.1" data-instance-id="repeat_p1--curve--proto_sw_3_2__seed_693261803__global_l1_flow_v3__density_medium__selected_l1_005.L2.1" data-repeat-id="repeat_p1" data-repeat-shift="1" d="M 1.5478,0.8232 C 1.5097,0.851 1.4847,0.8657 1.4377,0.8701" fill="none" stroke="#00ffff" stroke-width="0.007" stroke-linejoin="round" stroke-linecap="round" data-role="secondary_branch" data-level="L2" data-curve-id="proto_sw_3_2__seed_693261803__global_l1_flow_v3__density_medium__selected_l1_005.L2.1" data-parent-curve-id="proto_sw_3_2__seed_693261803__global_l1_flow_v3__density_medium__selected_l1_005.L1" data-lane-id="selected_l1_005" data-unit-id="proto_sw_3_2__seed_693261803__global_l1_flow_v3__density_medium__selected_l1_005__Y-C__compact_c__context_preferred__sample_0101"/><path id="repeat_p1--curve--proto_sw_3_2__seed_693261803__global_l1_flow_v3__density_medium__selected_l1_002.L1" data-instance-id="repeat_p1--curve--proto_sw_3_2__seed_693261803__global_l1_flow_v3__density_medium__selected_l1_002.L1" data-repeat-id="repeat_p1" data-repeat-shift="1" d="M 1.1996,0.8006 C 1.3554,0.8003 1.3083,0.7278 1.4215,0.6952" fill="none" stroke="#ff9900" stroke-width="0.01" stroke-linejoin="round" stroke-linecap="round" data-role="primary_branch" data-level="L1" data-curve-id="proto_sw_3_2__seed_693261803__global_l1_flow_v3__density_medium__selected_l1_002.L1" data-parent-curve-id="None" data-lane-id="selected_l1_002" data-unit-id="proto_sw_3_2__seed_693261803__global_l1_flow_v3__density_medium__selected_l1_002__L1-Only__independent_l1__context_preferred__sample_0025"/><path id="repeat_p1--curve--proto_sw_3_2__seed_693261803__global_l1_flow_v3__density_medium__selected_l1_003.L1" data-instance-id="repeat_p1--curve--proto_sw_3_2__seed_693261803__global_l1_flow_v3__density_medium__selected_l1_003.L1" data-repeat-id="repeat_p1" data-repeat-shift="1" d="M 1.348,0.6837 C 1.3916,0.6543 1.2902,0.6068 1.32,0.5744" fill="none" stroke="#ff9900" stroke-width="0.01" stroke-linejoin="round" stroke-linecap="round" data-role="primary_branch" data-level="L1" data-curve-id="proto_sw_3_2__seed_693261803__global_l1_flow_v3__density_medium__selected_l1_003.L1" data-parent-curve-id="None" data-lane-id="selected_l1_003" data-unit-id="proto_sw_3_2__seed_693261803__global_l1_flow_v3__density_medium__selected_l1_003__L1-Only__independent_l1__context_preferred__sample_0050"/><path id="repeat_p1--curve--proto_sw_3_2__seed_693261803__global_l1_flow_v3__density_medium__selected_l1_001.L1" data-instance-id="repeat_p1--curve--proto_sw_3_2__seed_693261803__global_l1_flow_v3__density_medium__selected_l1_001.L1" data-repeat-id="repeat_p1" data-repeat-shift="1" d="M 1.1126,0.8516 C 1.1765,0.7579 1.1201,0.7119 1.1263,0.6064" fill="none" stroke="#ff9900" stroke-width="0.01" stroke-linejoin="round" stroke-linecap="round" data-role="primary_branch" data-level="L1" data-curve-id="proto_sw_3_2__seed_693261803__global_l1_flow_v3__density_medium__selected_l1_001.L1" data-parent-curve-id="None" data-lane-id="selected_l1_001" data-unit-id="proto_sw_3_2__seed_693261803__global_l1_flow_v3__density_medium__selected_l1_001__L1-Only__independent_l1__context_preferred__sample_0000"/><path id="repeat_p1--curve--proto_sw_3_2__seed_693261803__global_l1_flow_v3__density_medium__selected_l1_004.L1" data-instance-id="repeat_p1--curve--proto_sw_3_2__seed_693261803__global_l1_flow_v3__density_medium__selected_l1_004.L1" data-repeat-id="repeat_p1" data-repeat-shift="1" d="M 1.4563,0.6994 C 1.5699,0.757 1.663,0.6931 1.6863,0.7858" fill="none" stroke="#ff9900" stroke-width="0.01" stroke-linejoin="round" stroke-linecap="round" data-role="primary_branch" data-level="L1" data-curve-id="proto_sw_3_2__seed_693261803__global_l1_flow_v3__density_medium__selected_l1_004.L1" data-parent-curve-id="None" data-lane-id="selected_l1_004" data-unit-id="proto_sw_3_2__seed_693261803__global_l1_flow_v3__density_medium__selected_l1_004__L1-Only__independent_l1__context_preferred__sample_0075"/></g></g></svg>