<svg xmlns="http://www.w3.org/2000/svg" id="structural-svg--proto_sw_3_1--production-seed-20260924" data-prototype-id="proto_sw_3_1" data-production-seed="20260924" data-backbone-seed="2851481760" data-flower-seed="1575489127" data-branch-seed="693261803" data-unit-seed="2280073275" data-backbone-variant-id="expanded" data-density-level="medium" data-source-case="SW3-A_seed20260924_width1.0" data-repeat-mode="triple" viewBox="-1.08 0 3.16 1.1875" width="3160" height="1188"><rect x="-1.08" y="0" width="3.16" height="1.1875" fill="#f1efe9"/><metadata>role_color_identity_v2: backbone=#0000ff; primary_branch=#ff9900; secondary_branch=#00ffff; flower_support=#007800; flower_anchor=#ff0000; unit_boundary=#000000(dashed). data-role is authoritative; stroke color is a visual fallback.</metadata><g id="unit-boundaries" data-instance-id="unit-boundaries" data-role="unit_boundary"><line id="unit-boundary--00" data-instance-id="unit-boundary--00" data-boundary-x="-1" x1="-1" y1="0" x2="-1" y2="1.1875" stroke="#000000" stroke-dasharray="0.012 0.008" stroke-width="0.004"/><line id="unit-boundary--01" data-instance-id="unit-boundary--01" data-boundary-x="0" x1="0" y1="0" x2="0" y2="1.1875" stroke="#000000" stroke-dasharray="0.012 0.008" stroke-width="0.004"/><line id="unit-boundary--02" data-instance-id="unit-boundary--02" data-boundary-x="1" x1="1" y1="0" x2="1" y2="1.1875" stroke="#000000" stroke-dasharray="0.012 0.008" stroke-width="0.004"/><line id="unit-boundary--03" data-instance-id="unit-boundary--03" data-boundary-x="2" x1="2" y1="0" x2="2" y2="1.1875" stroke="#000000" stroke-dasharray="0.012 0.008" stroke-width="0.004"/></g><g id="backbone-layer" data-instance-id="backbone-layer" data-role="backbone"><g id="backbone--repeat_m1" data-instance-id="backbone--repeat_m1" data-repeat-id="repeat_m1" data-repeat-shift="-1"><polyline points="-1,0.6334 -0.9826,0.6231 -0.9643,0.6134 -0.9454,0.6045 -0.9259,0.5964 -0.9058,0.5891 -0.8853,0.5828 -0.8645,0.5778 -0.8436,0.574 -0.823,0.5718 -0.8031,0.5715 -0.7845,0.5732 -0.7673,0.5771 -0.7517,0.5832 -0.7379,0.5918 -0.7257,0.6025 -0.7151,0.6148 -0.7058,0.6286 -0.6998,0.6435 -0.6953,0.6592 -0.6904,0.6754 -0.6854,0.6918 -0.6801,0.7086 -0.6746,0.7258 -0.6688,0.7428 -0.6628,0.7594 -0.6565,0.7757 -0.6498,0.7918 -0.6429,0.8078 -0.6356,0.8237 -0.6278,0.8397 -0.6196,0.8559 -0.6107,0.8724 -0.6012,0.8894 -0.5909,0.9069 -0.5795,0.925 -0.5669,0.9439 -0.5526,0.9635 -0.5359,0.9837 -0.517,1.0041 -0.4993,1.0238 -0.4809,1.0399 -0.4618,1.0534 -0.4422,1.0689 -0.4222,1.0824 -0.4017,1.0937 -0.3809,1.1022 -0.36,1.1072 -0.3392,1.1078 -0.3188,1.1038 -0.2992,1.0944 -0.2806,1.0808 -0.2633,1.0637 -0.2473,1.0442 -0.2329,1.0234 -0.2198,1.0022 -0.2081,0.9812 -0.1976,0.9617 -0.1867,0.9413 -0.1802,0.9213 -0.177,0.9023 -0.1754,0.8842 -0.1747,0.8669 -0.1746,0.8501 -0.1762,0.8338 -0.1769,0.8178 -0.1752,0.8023 -0.1716,0.7872 -0.166,0.7725 -0.1586,0.7584 -0.1496,0.7447 -0.1391,0.7314 -0.1273,0.7187 -0.1143,0.7065 -0.1001,0.6947 -0.0851,0.6834 -0.0693,0.6726 -0.0527,0.6622 -0.0356,0.6523 -0.018,0.6427 0,0.6334" fill="none" id="repeat_m1--backbone" data-instance-id="repeat_m1--backbone" data-repeat-id="repeat_m1" data-repeat-shift="-1" stroke="#0000ff" stroke-width="0.007" stroke-linejoin="round" stroke-linecap="round"/></g><g id="backbone--repeat_0" data-instance-id="backbone--repeat_0" data-repeat-id="repeat_0" data-repeat-shift="0"><polyline points="0,0.6334 0.0174,0.6231 0.0357,0.6134 0.0546,0.6045 0.0741,0.5964 0.0942,0.5891 0.1147,0.5828 0.1355,0.5778 0.1564,0.574 0.177,0.5718 0.1969,0.5715 0.2155,0.5732 0.2327,0.5771 0.2483,0.5832 0.2621,0.5918 0.2743,0.6025 0.2849,0.6148 0.2942,0.6286 0.3002,0.6435 0.3047,0.6592 0.3096,0.6754 0.3146,0.6918 0.3199,0.7086 0.3254,0.7258 0.3312,0.7428 0.3372,0.7594 0.3435,0.7757 0.3502,0.7918 0.3571,0.8078 0.3644,0.8237 0.3722,0.8397 0.3804,0.8559 0.3893,0.8724 0.3988,0.8894 0.4091,0.9069 0.4205,0.925 0.4331,0.9439 0.4474,0.9635 0.4641,0.9837 0.483,1.0041 0.5007,1.0238 0.5191,1.0399 0.5382,1.0534 0.5578,1.0689 0.5778,1.0824 0.5983,1.0937 0.6191,1.1022 0.64,1.1072 0.6608,1.1078 0.6812,1.1038 0.7008,1.0944 0.7194,1.0808 0.7367,1.0637 0.7527,1.0442 0.7671,1.0234 0.7802,1.0022 0.7919,0.9812 0.8024,0.9617 0.8133,0.9413 0.8198,0.9213 0.823,0.9023 0.8246,0.8842 0.8253,0.8669 0.8254,0.8501 0.8238,0.8338 0.8231,0.8178 0.8248,0.8023 0.8284,0.7872 0.834,0.7725 0.8414,0.7584 0.8504,0.7447 0.8609,0.7314 0.8727,0.7187 0.8857,0.7065 0.8999,0.6947 0.9149,0.6834 0.9307,0.6726 0.9473,0.6622 0.9644,0.6523 0.982,0.6427 1,0.6334" fill="none" id="repeat_0--backbone" data-instance-id="repeat_0--backbone" data-repeat-id="repeat_0" data-repeat-shift="0" stroke="#0000ff" stroke-width="0.014" stroke-linejoin="round" stroke-linecap="round"/></g><g id="backbone--repeat_p1" data-instance-id="backbone--repeat_p1" data-repeat-id="repeat_p1" data-repeat-shift="1"><polyline points="1,0.6334 1.0174,0.6231 1.0357,0.6134 1.0546,0.6045 1.0741,0.5964 1.0942,0.5891 1.1147,0.5828 1.1355,0.5778 1.1564,0.574 1.177,0.5718 1.1969,0.5715 1.2155,0.5732 1.2327,0.5771 1.2483,0.5832 1.2621,0.5918 1.2743,0.6025 1.2849,0.6148 1.2942,0.6286 1.3002,0.6435 1.3047,0.6592 1.3096,0.6754 1.3146,0.6918 1.3199,0.7086 1.3254,0.7258 1.3312,0.7428 1.3372,0.7594 1.3435,0.7757 1.3502,0.7918 1.3571,0.8078 1.3644,0.8237 1.3722,0.8397 1.3804,0.8559 1.3893,0.8724 1.3988,0.8894 1.4091,0.9069 1.4205,0.925 1.4331,0.9439 1.4474,0.9635 1.4641,0.9837 1.483,1.0041 1.5007,1.0238 1.5191,1.0399 1.5382,1.0534 1.5578,1.0689 1.5778,1.0824 1.5983,1.0937 1.6191,1.1022 1.64,1.1072 1.6608,1.1078 1.6812,1.1038 1.7008,1.0944 1.7194,1.0808 1.7367,1.0637 1.7527,1.0442 1.7671,1.0234 1.7802,1.0022 1.7919,0.9812 1.8024,0.9617 1.8133,0.9413 1.8198,0.9213 1.823,0.9023 1.8246,0.8842 1.8253,0.8669 1.8254,0.8501 1.8238,0.8338 1.8231,0.8178 1.8248,0.8023 1.8284,0.7872 1.834,0.7725 1.8414,0.7584 1.8504,0.7447 1.8609,0.7314 1.8727,0.7187 1.8857,0.7065 1.8999,0.6947 1.9149,0.6834 1.9307,0.6726 1.9473,0.6622 1.9644,0.6523 1.982,0.6427 2,0.6334" fill="none" id="repeat_p1--backbone" data-instance-id="repeat_p1--backbone" data-repeat-id="repeat_p1" data-repeat-shift="1" stroke="#0000ff" stroke-width="0.007" stroke-linejoin="round" stroke-linecap="round"/></g></g><g id="flower-support-layer" data-instance-id="flower-support-layer" data-role="flower_support"><g id="flower-support--repeat_m1" data-instance-id="flower-support--repeat_m1" data-repeat-id="repeat_m1" data-repeat-shift="-1"><polyline points="-0.6628,0.7594 -0.659,0.7687 -0.6546,0.778 -0.6496,0.7874 -0.6441,0.7969 -0.638,0.8063 -0.6314,0.8157 -0.6244,0.8251 -0.6169,0.8345 -0.6091,0.8438 -0.6008,0.8529 -0.5923,0.862 -0.5834,0.8709 -0.5743,0.8796 -0.5649,0.8882 -0.5554,0.8966 -0.5456,0.9047 -0.5357,0.9126 -0.5258,0.9202 -0.5157,0.9275 -0.5056,0.9345 -0.4954,0.9412 -0.4853,0.9475 -0.4752,0.9534 -0.4653,0.959 -0.4554,0.9641 -0.4456,0.9688 -0.4361,0.973 -0.4268,0.9767 -0.4177,0.9799 -0.4088,0.9826 -0.4003,0.9848 -0.3921,0.9863 -0.3843,0.9873 -0.3769,0.9877 -0.3699,0.9874 -0.3634,0.9865 -0.3573,0.9849 -0.3518,0.9826 -0.3469,0.9795 -0.3426,0.9757 -0.3402,0.9734 -0.3377,0.971 -0.3351,0.9687 -0.3325,0.9664 -0.3297,0.9641 -0.327,0.9618 -0.3241,0.9595 -0.3212,0.9573 -0.3182,0.955 -0.3153,0.9528 -0.3122,0.9506 -0.3092,0.9483 -0.3062,0.9461 -0.3031,0.9439 -0.3001,0.9417 -0.2971,0.9395 -0.2941,0.9373 -0.2912,0.9351 -0.2882,0.9328 -0.2854,0.9306 -0.2826,0.9284 -0.2798,0.9261 -0.2772,0.9239 -0.2746,0.9216 -0.2721,0.9193 -0.2697,0.917 -0.2674,0.9147 -0.2653,0.9123 -0.2632,0.9099 -0.2613,0.9075 -0.2595,0.9051 -0.2579,0.9027 -0.2565,0.9002 -0.2552,0.8977 -0.2541,0.8952 -0.2531,0.8926 -0.2524,0.89 -0.2519,0.8873 -0.2515,0.8847 -0.2514,0.8819" fill="none" id="repeat_m1--flower-support--proto_sw_3_1__flower_1__flower_support" data-instance-id="repeat_m1--flower-support--proto_sw_3_1__flower_1__flower_support" data-repeat-id="repeat_m1" data-repeat-shift="-1" data-mount-id="proto_sw_3_1__flower_1__flower_support" stroke="#007800" stroke-width="0.010" stroke-linejoin="round" stroke-linecap="round" data-flower-id="flower_1"/></g><g id="flower-support--repeat_0" data-instance-id="flower-support--repeat_0" data-repeat-id="repeat_0" data-repeat-shift="0"><polyline points="0.3372,0.7594 0.341,0.7687 0.3454,0.778 0.3504,0.7874 0.3559,0.7969 0.362,0.8063 0.3686,0.8157 0.3756,0.8251 0.3831,0.8345 0.3909,0.8438 0.3992,0.8529 0.4077,0.862 0.4166,0.8709 0.4257,0.8796 0.4351,0.8882 0.4446,0.8966 0.4544,0.9047 0.4643,0.9126 0.4742,0.9202 0.4843,0.9275 0.4944,0.9345 0.5046,0.9412 0.5147,0.9475 0.5248,0.9534 0.5347,0.959 0.5446,0.9641 0.5544,0.9688 0.5639,0.973 0.5732,0.9767 0.5823,0.9799 0.5912,0.9826 0.5997,0.9848 0.6079,0.9863 0.6157,0.9873 0.6231,0.9877 0.6301,0.9874 0.6366,0.9865 0.6427,0.9849 0.6482,0.9826 0.6531,0.9795 0.6574,0.9757 0.6598,0.9734 0.6623,0.971 0.6649,0.9687 0.6675,0.9664 0.6703,0.9641 0.673,0.9618 0.6759,0.9595 0.6788,0.9573 0.6818,0.955 0.6847,0.9528 0.6878,0.9506 0.6908,0.9483 0.6938,0.9461 0.6969,0.9439 0.6999,0.9417 0.7029,0.9395 0.7059,0.9373 0.7088,0.9351 0.7118,0.9328 0.7146,0.9306 0.7174,0.9284 0.7202,0.9261 0.7228,0.9239 0.7254,0.9216 0.7279,0.9193 0.7303,0.917 0.7326,0.9147 0.7347,0.9123 0.7368,0.9099 0.7387,0.9075 0.7405,0.9051 0.7421,0.9027 0.7435,0.9002 0.7448,0.8977 0.7459,0.8952 0.7469,0.8926 0.7476,0.89 0.7481,0.8873 0.7485,0.8847 0.7486,0.8819" fill="none" id="repeat_0--flower-support--proto_sw_3_1__flower_1__flower_support" data-instance-id="repeat_0--flower-support--proto_sw_3_1__flower_1__flower_support" data-repeat-id="repeat_0" data-repeat-shift="0" data-mount-id="proto_sw_3_1__flower_1__flower_support" stroke="#007800" stroke-width="0.010" stroke-linejoin="round" stroke-linecap="round" data-flower-id="flower_1"/></g><g id="flower-support--repeat_p1" data-instance-id="flower-support--repeat_p1" data-repeat-id="repeat_p1" data-repeat-shift="1"><polyline points="1.3372,0.7594 1.341,0.7687 1.3454,0.778 1.3504,0.7874 1.3559,0.7969 1.362,0.8063 1.3686,0.8157 1.3756,0.8251 1.3831,0.8345 1.3909,0.8438 1.3992,0.8529 1.4077,0.862 1.4166,0.8709 1.4257,0.8796 1.4351,0.8882 1.4446,0.8966 1.4544,0.9047 1.4643,0.9126 1.4742,0.9202 1.4843,0.9275 1.4944,0.9345 1.5046,0.9412 1.5147,0.9475 1.5248,0.9534 1.5347,0.959 1.5446,0.9641 1.5544,0.9688 1.5639,0.973 1.5732,0.9767 1.5823,0.9799 1.5912,0.9826 1.5997,0.9848 1.6079,0.9863 1.6157,0.9873 1.6231,0.9877 1.6301,0.9874 1.6366,0.9865 1.6427,0.9849 1.6482,0.9826 1.6531,0.9795 1.6574,0.9757 1.6598,0.9734 1.6623,0.971 1.6649,0.9687 1.6675,0.9664 1.6703,0.9641 1.673,0.9618 1.6759,0.9595 1.6788,0.9573 1.6818,0.955 1.6847,0.9528 1.6878,0.9506 1.6908,0.9483 1.6938,0.9461 1.6969,0.9439 1.6999,0.9417 1.7029,0.9395 1.7059,0.9373 1.7088,0.9351 1.7118,0.9328 1.7146,0.9306 1.7174,0.9284 1.7202,0.9261 1.7228,0.9239 1.7254,0.9216 1.7279,0.9193 1.7303,0.917 1.7326,0.9147 1.7347,0.9123 1.7368,0.9099 1.7387,0.9075 1.7405,0.9051 1.7421,0.9027 1.7435,0.9002 1.7448,0.8977 1.7459,0.8952 1.7469,0.8926 1.7476,0.89 1.7481,0.8873 1.7485,0.8847 1.7486,0.8819" fill="none" id="repeat_p1--flower-support--proto_sw_3_1__flower_1__flower_support" data-instance-id="repeat_p1--flower-support--proto_sw_3_1__flower_1__flower_support" data-repeat-id="repeat_p1" data-repeat-shift="1" data-mount-id="proto_sw_3_1__flower_1__flower_support" stroke="#007800" stroke-width="0.010" stroke-linejoin="round" stroke-linecap="round" data-flower-id="flower_1"/></g></g><g id="flower-anchor-layer" data-instance-id="flower-anchor-layer" data-role="flower_anchor"><g id="flower-anchor--repeat_m1" data-instance-id="flower-anchor--repeat_m1" data-repeat-id="repeat_m1" data-repeat-shift="-1"><ellipse id="repeat_m1--flower-anchor--flower_1" data-instance-id="repeat_m1--flower-anchor--flower_1" data-repeat-id="repeat_m1" data-repeat-shift="-1" cx="-0.2514" cy="0.5584" rx="0.2325" ry="0.3235" fill="#fff7fb" stroke="#ff0000" stroke-width="0.006" data-flower-id="flower_1"/></g><g id="flower-anchor--repeat_0" data-instance-id="flower-anchor--repeat_0" data-repeat-id="repeat_0" data-repeat-shift="0"><ellipse id="repeat_0--flower-anchor--flower_1" data-instance-id="repeat_0--flower-anchor--flower_1" data-repeat-id="repeat_0" data-repeat-shift="0" cx="0.7486" cy="0.5584" rx="0.2325" ry="0.3235" fill="#fff7fb" stroke="#ff0000" stroke-width="0.006" data-flower-id="flower_1"/></g><g id="flower-anchor--repeat_p1" data-instance-id="flower-anchor--repeat_p1" data-repeat-id="repeat_p1" data-repeat-shift="1"><ellipse id="repeat_p1--flower-anchor--flower_1" data-instance-id="repeat_p1--flower-anchor--flower_1" data-repeat-id="repeat_p1" data-repeat-shift="1" cx="1.7486" cy="0.5584" rx="0.2325" ry="0.3235" fill="#fff7fb" stroke="#ff0000" stroke-width="0.006" data-flower-id="flower_1"/></g></g><g id="branches-layer" data-instance-id="branches-layer" data-role="branches"><g id="branches--repeat_m1" data-instance-id="branches--repeat_m1" data-repeat-id="repeat_m1" data-repeat-shift="-1"><path id="repeat_m1--curve--proto_sw_3_1__seed_693261803__global_l1_flow_v3__density_medium__selected_l1_003.L1" data-instance-id="repeat_m1--curve--proto_sw_3_1__seed_693261803__global_l1_flow_v3__density_medium__selected_l1_003.L1" data-repeat-id="repeat_m1" data-repeat-shift="-1" d="M -0.7004,0.6423 C -0.696,0.6006 -0.6323,0.5872 -0.5927,0.6087" fill="none" stroke="#ff9900" stroke-width="0.01" stroke-linejoin="round" stroke-linecap="round" data-role="primary_branch" data-level="L1" data-curve-id="proto_sw_3_1__seed_693261803__global_l1_flow_v3__density_medium__selected_l1_003.L1" data-parent-curve-id="None" data-lane-id="selected_l1_003" data-unit-id="proto_sw_3_1__seed_693261803__global_l1_flow_v3__density_medium__selected_l1_003__L1-Only__independent_l1__context_preferred__sample_0050"/><path id="repeat_m1--curve--proto_sw_3_1__seed_693261803__global_l1_flow_v3__density_medium__selected_l1_005.L1" data-instance-id="repeat_m1--curve--proto_sw_3_1__seed_693261803__global_l1_flow_v3__density_medium__selected_l1_005.L1" data-repeat-id="repeat_m1" data-repeat-shift="-1" d="M -0.3599,1.1072 C -0.3166,1.0843 -0.2835,1.0504 -0.3066,1.0078" fill="none" stroke="#ff9900" stroke-width="0.01" stroke-linejoin="round" stroke-linecap="round" data-role="primary_branch" data-level="L1" data-curve-id="proto_sw_3_1__seed_693261803__global_l1_flow_v3__density_medium__selected_l1_005.L1" data-parent-curve-id="None" data-lane-id="selected_l1_005" data-unit-id="proto_sw_3_1__seed_693261803__global_l1_flow_v3__density_medium__selected_l1_005__L1-Only__independent_l1__context_preferred__sample_0100"/><path id="repeat_m1--curve--proto_sw_3_1__seed_693261803__global_l1_flow_v3__density_medium__selected_l1_004.L1" data-instance-id="repeat_m1--curve--proto_sw_3_1__seed_693261803__global_l1_flow_v3__density_medium__selected_l1_004.L1" data-repeat-id="repeat_m1" data-repeat-shift="-1" d="M -0.5475,0.9698 C -0.6261,0.9133 -0.6909,0.7446 -0.7692,0.9021" fill="none" stroke="#ff9900" stroke-width="0.01" stroke-linejoin="round" stroke-linecap="round" data-role="primary_branch" data-level="L1" data-curve-id="proto_sw_3_1__seed_693261803__global_l1_flow_v3__density_medium__selected_l1_004.L1" data-parent-curve-id="None" data-lane-id="selected_l1_004" data-unit-id="proto_sw_3_1__seed_693261803__global_l1_flow_v3__density_medium__selected_l1_004__L1-Only__independent_l1__context_preferred__sample_0075"/><path id="repeat_m1--curve--proto_sw_3_1__seed_693261803__global_l1_flow_v3__density_medium__selected_l1_002.L1" data-instance-id="repeat_m1--curve--proto_sw_3_1__seed_693261803__global_l1_flow_v3__density_medium__selected_l1_002.L1" data-repeat-id="repeat_m1" data-repeat-shift="-1" d="M -0.8391,0.5735 C -0.7426,0.6027 -0.7586,0.7013 -0.7903,0.8002" fill="none" stroke="#ff9900" stroke-width="0.01" stroke-linejoin="round" stroke-linecap="round" data-role="primary_branch" data-level="L1" data-curve-id="proto_sw_3_1__seed_693261803__global_l1_flow_v3__density_medium__selected_l1_002.L1" data-parent-curve-id="None" data-lane-id="selected_l1_002" data-unit-id="proto_sw_3_1__seed_693261803__global_l1_flow_v3__density_medium__selected_l1_002__L1-Only__independent_l1__context_preferred__sample_0025"/><path id="repeat_m1--curve--proto_sw_3_1__seed_693261803__global_l1_flow_v3__density_medium__selected_l1_006.L1" data-instance-id="repeat_m1--curve--proto_sw_3_1__seed_693261803__global_l1_flow_v3__density_medium__selected_l1_006.L1" data-repeat-id="repeat_m1" data-repeat-shift="-1" d="M -0.1798,0.9189 C -0.1588,1.0242 -0.0674,0.9867 0.0395,0.9941" fill="none" stroke="#ff9900" stroke-width="0.01" stroke-linejoin="round" stroke-linecap="round" data-role="primary_branch" data-level="L1" data-curve-id="proto_sw_3_1__seed_693261803__global_l1_flow_v3__density_medium__selected_l1_006.L1" data-parent-curve-id="None" data-lane-id="selected_l1_006" data-unit-id="proto_sw_3_1__seed_693261803__global_l1_flow_v3__density_medium__selected_l1_006__Y-C__compact_c__context_preferred__sample_0126"/><path id="repeat_m1--curve--proto_sw_3_1__seed_693261803__global_l1_flow_v3__density_medium__selected_l1_006.L2.1" data-instance-id="repeat_m1--curve--proto_sw_3_1__seed_693261803__global_l1_flow_v3__density_medium__selected_l1_006.L2.1" data-repeat-id="repeat_m1" data-repeat-shift="-1" d="M -0.1397,0.9822 C -0.1262,1.0281 -0.12,1.0518 -0.0908,1.0897" fill="none" stroke="#00ffff" stroke-width="0.007" stroke-linejoin="round" stroke-linecap="round" data-role="secondary_branch" data-level="L2" data-curve-id="proto_sw_3_1__seed_693261803__global_l1_flow_v3__density_medium__selected_l1_006.L2.1" data-parent-curve-id="proto_sw_3_1__seed_693261803__global_l1_flow_v3__density_medium__selected_l1_006.L1" data-lane-id="selected_l1_006" data-unit-id="proto_sw_3_1__seed_693261803__global_l1_flow_v3__density_medium__selected_l1_006__Y-C__compact_c__context_preferred__sample_0126"/><path id="repeat_m1--curve--proto_sw_3_1__seed_693261803__global_l1_flow_v3__density_medium__selected_l1_001.L1" data-instance-id="repeat_m1--curve--proto_sw_3_1__seed_693261803__global_l1_flow_v3__density_medium__selected_l1_001.L1" data-repeat-id="repeat_m1" data-repeat-shift="-1" d="M -0.9835,0.6236 C -1.057,0.7447 -0.9225,0.7576 -0.8309,0.7982" fill="none" stroke="#ff9900" stroke-width="0.01" stroke-linejoin="round" stroke-linecap="round" data-role="primary_branch" data-level="L1" data-curve-id="proto_sw_3_1__seed_693261803__global_l1_flow_v3__density_medium__selected_l1_001.L1" data-parent-curve-id="None" data-lane-id="selected_l1_001" data-unit-id="proto_sw_3_1__seed_693261803__global_l1_flow_v3__density_medium__selected_l1_001__L1-Only__independent_l1__context_preferred__sample_0000"/></g><g id="branches--repeat_0" data-instance-id="branches--repeat_0" data-repeat-id="repeat_0" data-repeat-shift="0"><path id="repeat_0--curve--proto_sw_3_1__seed_693261803__global_l1_flow_v3__density_medium__selected_l1_003.L1" data-instance-id="repeat_0--curve--proto_sw_3_1__seed_693261803__global_l1_flow_v3__density_medium__selected_l1_003.L1" data-repeat-id="repeat_0" data-repeat-shift="0" d="M 0.2996,0.6423 C 0.304,0.6006 0.3677,0.5872 0.4073,0.6087" fill="none" stroke="#ff9900" stroke-width="0.01" stroke-linejoin="round" stroke-linecap="round" data-role="primary_branch" data-level="L1" data-curve-id="proto_sw_3_1__seed_693261803__global_l1_flow_v3__density_medium__selected_l1_003.L1" data-parent-curve-id="None" data-lane-id="selected_l1_003" data-unit-id="proto_sw_3_1__seed_693261803__global_l1_flow_v3__density_medium__selected_l1_003__L1-Only__independent_l1__context_preferred__sample_0050"/><path id="repeat_0--curve--proto_sw_3_1__seed_693261803__global_l1_flow_v3__density_medium__selected_l1_005.L1" data-instance-id="repeat_0--curve--proto_sw_3_1__seed_693261803__global_l1_flow_v3__density_medium__selected_l1_005.L1" data-repeat-id="repeat_0" data-repeat-shift="0" d="M 0.6401,1.1072 C 0.6834,1.0843 0.7165,1.0504 0.6934,1.0078" fill="none" stroke="#ff9900" stroke-width="0.01" stroke-linejoin="round" stroke-linecap="round" data-role="primary_branch" data-level="L1" data-curve-id="proto_sw_3_1__seed_693261803__global_l1_flow_v3__density_medium__selected_l1_005.L1" data-parent-curve-id="None" data-lane-id="selected_l1_005" data-unit-id="proto_sw_3_1__seed_693261803__global_l1_flow_v3__density_medium__selected_l1_005__L1-Only__independent_l1__context_preferred__sample_0100"/><path id="repeat_0--curve--proto_sw_3_1__seed_693261803__global_l1_flow_v3__density_medium__selected_l1_004.L1" data-instance-id="repeat_0--curve--proto_sw_3_1__seed_693261803__global_l1_flow_v3__density_medium__selected_l1_004.L1" data-repeat-id="repeat_0" data-repeat-shift="0" d="M 0.4525,0.9698 C 0.3739,0.9133 0.3091,0.7446 0.2308,0.9021" fill="none" stroke="#ff9900" stroke-width="0.01" stroke-linejoin="round" stroke-linecap="round" data-role="primary_branch" data-level="L1" data-curve-id="proto_sw_3_1__seed_693261803__global_l1_flow_v3__density_medium__selected_l1_004.L1" data-parent-curve-id="None" data-lane-id="selected_l1_004" data-unit-id="proto_sw_3_1__seed_693261803__global_l1_flow_v3__density_medium__selected_l1_004__L1-Only__independent_l1__context_preferred__sample_0075"/><path id="repeat_0--curve--proto_sw_3_1__seed_693261803__global_l1_flow_v3__density_medium__selected_l1_002.L1" data-instance-id="repeat_0--curve--proto_sw_3_1__seed_693261803__global_l1_flow_v3__density_medium__selected_l1_002.L1" data-repeat-id="repeat_0" data-repeat-shift="0" d="M 0.1609,0.5735 C 0.2574,0.6027 0.2414,0.7013 0.2097,0.8002" fill="none" stroke="#ff9900" stroke-width="0.01" stroke-linejoin="round" stroke-linecap="round" data-role="primary_branch" data-level="L1" data-curve-id="proto_sw_3_1__seed_693261803__global_l1_flow_v3__density_medium__selected_l1_002.L1" data-parent-curve-id="None" data-lane-id="selected_l1_002" data-unit-id="proto_sw_3_1__seed_693261803__global_l1_flow_v3__density_medium__selected_l1_002__L1-Only__independent_l1__context_preferred__sample_0025"/><path id="repeat_0--curve--proto_sw_3_1__seed_693261803__global_l1_flow_v3__density_medium__selected_l1_006.L1" data-instance-id="repeat_0--curve--proto_sw_3_1__seed_693261803__global_l1_flow_v3__density_medium__selected_l1_006.L1" data-repeat-id="repeat_0" data-repeat-shift="0" d="M 0.8202,0.9189 C 0.8412,1.0242 0.9326,0.9867 1.0395,0.9941" fill="none" stroke="#ff9900" stroke-width="0.01" stroke-linejoin="round" stroke-linecap="round" data-role="primary_branch" data-level="L1" data-curve-id="proto_sw_3_1__seed_693261803__global_l1_flow_v3__density_medium__selected_l1_006.L1" data-parent-curve-id="None" data-lane-id="selected_l1_006" data-unit-id="proto_sw_3_1__seed_693261803__global_l1_flow_v3__density_medium__selected_l1_006__Y-C__compact_c__context_preferred__sample_0126"/><path id="repeat_0--curve--proto_sw_3_1__seed_693261803__global_l1_flow_v3__density_medium__selected_l1_006.L2.1" data-instance-id="repeat_0--curve--proto_sw_3_1__seed_693261803__global_l1_flow_v3__density_medium__selected_l1_006.L2.1" data-repeat-id="repeat_0" data-repeat-shift="0" d="M 0.8603,0.9822 C 0.8738,1.0281 0.88,1.0518 0.9092,1.0897" fill="none" stroke="#00ffff" stroke-width="0.007" stroke-linejoin="round" stroke-linecap="round" data-role="secondary_branch" data-level="L2" data-curve-id="proto_sw_3_1__seed_693261803__global_l1_flow_v3__density_medium__selected_l1_006.L2.1" data-parent-curve-id="proto_sw_3_1__seed_693261803__global_l1_flow_v3__density_medium__selected_l1_006.L1" data-lane-id="selected_l1_006" data-unit-id="proto_sw_3_1__seed_693261803__global_l1_flow_v3__density_medium__selected_l1_006__Y-C__compact_c__context_preferred__sample_0126"/><path id="repeat_0--curve--proto_sw_3_1__seed_693261803__global_l1_flow_v3__density_medium__selected_l1_001.L1" data-instance-id="repeat_0--curve--proto_sw_3_1__seed_693261803__global_l1_flow_v3__density_medium__selected_l1_001.L1" data-repeat-id="repeat_0" data-repeat-shift="0" d="M 0.0165,0.6236 C -0.057,0.7447 0.0775,0.7576 0.1691,0.7982" fill="none" stroke="#ff9900" stroke-width="0.01" stroke-linejoin="round" stroke-linecap="round" data-role="primary_branch" data-level="L1" data-curve-id="proto_sw_3_1__seed_693261803__global_l1_flow_v3__density_medium__selected_l1_001.L1" data-parent-curve-id="None" data-lane-id="selected_l1_001" data-unit-id="proto_sw_3_1__seed_693261803__global_l1_flow_v3__density_medium__selected_l1_001__L1-Only__independent_l1__context_preferred__sample_0000"/></g><g id="branches--repeat_p1" data-instance-id="branches--repeat_p1" data-repeat-id="repeat_p1" data-repeat-shift="1"><path id="repeat_p1--curve--proto_sw_3_1__seed_693261803__global_l1_flow_v3__density_medium__selected_l1_003.L1" data-instance-id="repeat_p1--curve--proto_sw_3_1__seed_693261803__global_l1_flow_v3__density_medium__selected_l1_003.L1" data-repeat-id="repeat_p1" data-repeat-shift="1" d="M 1.2996,0.6423 C 1.304,0.6006 1.3677,0.5872 1.4073,0.6087" fill="none" stroke="#ff9900" stroke-width="0.01" stroke-linejoin="round" stroke-linecap="round" data-role="primary_branch" data-level="L1" data-curve-id="proto_sw_3_1__seed_693261803__global_l1_flow_v3__density_medium__selected_l1_003.L1" data-parent-curve-id="None" data-lane-id="selected_l1_003" data-unit-id="proto_sw_3_1__seed_693261803__global_l1_flow_v3__density_medium__selected_l1_003__L1-Only__independent_l1__context_preferred__sample_0050"/><path id="repeat_p1--curve--proto_sw_3_1__seed_693261803__global_l1_flow_v3__density_medium__selected_l1_005.L1" data-instance-id="repeat_p1--curve--proto_sw_3_1__seed_693261803__global_l1_flow_v3__density_medium__selected_l1_005.L1" data-repeat-id="repeat_p1" data-repeat-shift="1" d="M 1.6401,1.1072 C 1.6834,1.0843 1.7165,1.0504 1.6934,1.0078" fill="none" stroke="#ff9900" stroke-width="0.01" stroke-linejoin="round" stroke-linecap="round" data-role="primary_branch" data-level="L1" data-curve-id="proto_sw_3_1__seed_693261803__global_l1_flow_v3__density_medium__selected_l1_005.L1" data-parent-curve-id="None" data-lane-id="selected_l1_005" data-unit-id="proto_sw_3_1__seed_693261803__global_l1_flow_v3__density_medium__selected_l1_005__L1-Only__independent_l1__context_preferred__sample_0100"/><path id="repeat_p1--curve--proto_sw_3_1__seed_693261803__global_l1_flow_v3__density_medium__selected_l1_004.L1" data-instance-id="repeat_p1--curve--proto_sw_3_1__seed_693261803__global_l1_flow_v3__density_medium__selected_l1_004.L1" data-repeat-id="repeat_p1" data-repeat-shift="1" d="M 1.4525,0.9698 C 1.3739,0.9133 1.3091,0.7446 1.2308,0.9021" fill="none" stroke="#ff9900" stroke-width="0.01" stroke-linejoin="round" stroke-linecap="round" data-role="primary_branch" data-level="L1" data-curve-id="proto_sw_3_1__seed_693261803__global_l1_flow_v3__density_medium__selected_l1_004.L1" data-parent-curve-id="None" data-lane-id="selected_l1_004" data-unit-id="proto_sw_3_1__seed_693261803__global_l1_flow_v3__density_medium__selected_l1_004__L1-Only__independent_l1__context_preferred__sample_0075"/><path id="repeat_p1--curve--proto_sw_3_1__seed_693261803__global_l1_flow_v3__density_medium__selected_l1_002.L1" data-instance-id="repeat_p1--curve--proto_sw_3_1__seed_693261803__global_l1_flow_v3__density_medium__selected_l1_002.L1" data-repeat-id="repeat_p1" data-repeat-shift="1" d="M 1.1609,0.5735 C 1.2574,0.6027 1.2414,0.7013 1.2097,0.8002" fill="none" stroke="#ff9900" stroke-width="0.01" stroke-linejoin="round" stroke-linecap="round" data-role="primary_branch" data-level="L1" data-curve-id="proto_sw_3_1__seed_693261803__global_l1_flow_v3__density_medium__selected_l1_002.L1" data-parent-curve-id="None" data-lane-id="selected_l1_002" data-unit-id="proto_sw_3_1__seed_693261803__global_l1_flow_v3__density_medium__selected_l1_002__L1-Only__independent_l1__context_preferred__sample_0025"/><path id="repeat_p1--curve--proto_sw_3_1__seed_693261803__global_l1_flow_v3__density_medium__selected_l1_006.L1" data-instance-id="repeat_p1--curve--proto_sw_3_1__seed_693261803__global_l1_flow_v3__density_medium__selected_l1_006.L1" data-repeat-id="repeat_p1" data-repeat-shift="1" d="M 1.8202,0.9189 C 1.8412,1.0242 1.9326,0.9867 2.0395,0.9941" fill="none" stroke="#ff9900" stroke-width="0.01" stroke-linejoin="round" stroke-linecap="round" data-role="primary_branch" data-level="L1" data-curve-id="proto_sw_3_1__seed_693261803__global_l1_flow_v3__density_medium__selected_l1_006.L1" data-parent-curve-id="None" data-lane-id="selected_l1_006" data-unit-id="proto_sw_3_1__seed_693261803__global_l1_flow_v3__density_medium__selected_l1_006__Y-C__compact_c__context_preferred__sample_0126"/><path id="repeat_p1--curve--proto_sw_3_1__seed_693261803__global_l1_flow_v3__density_medium__selected_l1_006.L2.1" data-instance-id="repeat_p1--curve--proto_sw_3_1__seed_693261803__global_l1_flow_v3__density_medium__selected_l1_006.L2.1" data-repeat-id="repeat_p1" data-repeat-shift="1" d="M 1.8603,0.9822 C 1.8738,1.0281 1.88,1.0518 1.9092,1.0897" fill="none" stroke="#00ffff" stroke-width="0.007" stroke-linejoin="round" stroke-linecap="round" data-role="secondary_branch" data-level="L2" data-curve-id="proto_sw_3_1__seed_693261803__global_l1_flow_v3__density_medium__selected_l1_006.L2.1" data-parent-curve-id="proto_sw_3_1__seed_693261803__global_l1_flow_v3__density_medium__selected_l1_006.L1" data-lane-id="selected_l1_006" data-unit-id="proto_sw_3_1__seed_693261803__global_l1_flow_v3__density_medium__selected_l1_006__Y-C__compact_c__context_preferred__sample_0126"/><path id="repeat_p1--curve--proto_sw_3_1__seed_693261803__global_l1_flow_v3__density_medium__selected_l1_001.L1" data-instance-id="repeat_p1--curve--proto_sw_3_1__seed_693261803__global_l1_flow_v3__density_medium__selected_l1_001.L1" data-repeat-id="repeat_p1" data-repeat-shift="1" d="M 1.0165,0.6236 C 0.943,0.7447 1.0775,0.7576 1.1691,0.7982" fill="none" stroke="#ff9900" stroke-width="0.01" stroke-linejoin="round" stroke-linecap="round" data-role="primary_branch" data-level="L1" data-curve-id="proto_sw_3_1__seed_693261803__global_l1_flow_v3__density_medium__selected_l1_001.L1" data-parent-curve-id="None" data-lane-id="selected_l1_001" data-unit-id="proto_sw_3_1__seed_693261803__global_l1_flow_v3__density_medium__selected_l1_001__L1-Only__independent_l1__context_preferred__sample_0000"/></g></g></svg>